<svg xmlns="http://www.w3.org/2000/svg" xmlns:xlink="http://www.w3.org/1999/xlink" width="600" height="400" viewBox="0 0 2400 1600">
<defs>
  <clipPath id="clip890">
    <rect x="0" y="0" width="2400" height="1600"></rect>
  </clipPath>
</defs>
<path clip-path="url(#clip890)" d="M0 1600 L2400 1600 L2400 8.88178e-14 L0 8.88178e-14  Z" fill="#ffffff" fill-rule="evenodd" fill-opacity="1"></path>
<defs>
  <clipPath id="clip891">
    <rect x="480" y="0" width="1681" height="1600"></rect>
  </clipPath>
</defs>
<path clip-path="url(#clip890)" d="M192.709 1282.95 L2352.76 1282.95 L2352.76 47.2441 L192.709 47.2441  Z" fill="#ffffff" fill-rule="evenodd" fill-opacity="1"></path>
<defs>
  <clipPath id="clip892">
    <rect x="192" y="47" width="2161" height="1237"></rect>
  </clipPath>
</defs>
<polyline clip-path="url(#clip892)" style="stroke:#000000; stroke-linecap:round; stroke-linejoin:round; stroke-width:2; stroke-opacity:0.1; fill:none" points="239.592,1282.95 239.592,47.2441 "></polyline>
<polyline clip-path="url(#clip892)" style="stroke:#000000; stroke-linecap:round; stroke-linejoin:round; stroke-width:2; stroke-opacity:0.1; fill:none" points="667.099,1282.95 667.099,47.2441 "></polyline>
<polyline clip-path="url(#clip892)" style="stroke:#000000; stroke-linecap:round; stroke-linejoin:round; stroke-width:2; stroke-opacity:0.1; fill:none" points="1094.6,1282.95 1094.6,47.2441 "></polyline>
<polyline clip-path="url(#clip892)" style="stroke:#000000; stroke-linecap:round; stroke-linejoin:round; stroke-width:2; stroke-opacity:0.1; fill:none" points="1522.11,1282.95 1522.11,47.2441 "></polyline>
<polyline clip-path="url(#clip892)" style="stroke:#000000; stroke-linecap:round; stroke-linejoin:round; stroke-width:2; stroke-opacity:0.1; fill:none" points="1949.62,1282.95 1949.62,47.2441 "></polyline>
<polyline clip-path="url(#clip890)" style="stroke:#000000; stroke-linecap:round; stroke-linejoin:round; stroke-width:4; stroke-opacity:1; fill:none" points="192.709,1282.95 2352.76,1282.95 "></polyline>
<polyline clip-path="url(#clip890)" style="stroke:#000000; stroke-linecap:round; stroke-linejoin:round; stroke-width:4; stroke-opacity:1; fill:none" points="239.592,1282.95 239.592,1266.73 "></polyline>
<polyline clip-path="url(#clip890)" style="stroke:#000000; stroke-linecap:round; stroke-linejoin:round; stroke-width:4; stroke-opacity:1; fill:none" points="667.099,1282.95 667.099,1266.73 "></polyline>
<polyline clip-path="url(#clip890)" style="stroke:#000000; stroke-linecap:round; stroke-linejoin:round; stroke-width:4; stroke-opacity:1; fill:none" points="1094.6,1282.95 1094.6,1266.73 "></polyline>
<polyline clip-path="url(#clip890)" style="stroke:#000000; stroke-linecap:round; stroke-linejoin:round; stroke-width:4; stroke-opacity:1; fill:none" points="1522.11,1282.95 1522.11,1266.73 "></polyline>
<polyline clip-path="url(#clip890)" style="stroke:#000000; stroke-linecap:round; stroke-linejoin:round; stroke-width:4; stroke-opacity:1; fill:none" points="1949.62,1282.95 1949.62,1266.73 "></polyline>
<path clip-path="url(#clip890)" d="M239.592 1313.87 Q235.981 1313.87 234.153 1317.44 Q232.347 1320.98 232.347 1328.11 Q232.347 1335.22 234.153 1338.78 Q235.981 1342.32 239.592 1342.32 Q243.227 1342.32 245.032 1338.78 Q246.861 1335.22 246.861 1328.11 Q246.861 1320.98 245.032 1317.44 Q243.227 1313.87 239.592 1313.87 M239.592 1310.17 Q245.402 1310.17 248.458 1314.78 Q251.537 1319.36 251.537 1328.11 Q251.537 1336.84 248.458 1341.44 Q245.402 1346.03 239.592 1346.03 Q233.782 1346.03 230.704 1341.44 Q227.648 1336.84 227.648 1328.11 Q227.648 1319.36 230.704 1314.78 Q233.782 1310.17 239.592 1310.17 Z" fill="#000000" fill-rule="nonzero" fill-opacity="1"></path><path clip-path="url(#clip890)" d="M655.941 1326.72 Q659.298 1327.44 661.173 1329.71 Q663.071 1331.97 663.071 1335.31 Q663.071 1340.42 659.552 1343.22 Q656.034 1346.03 649.552 1346.03 Q647.377 1346.03 645.062 1345.59 Q642.77 1345.17 640.316 1344.31 L640.316 1339.8 Q642.261 1340.93 644.576 1341.51 Q646.89 1342.09 649.414 1342.09 Q653.812 1342.09 656.103 1340.35 Q658.418 1338.62 658.418 1335.31 Q658.418 1332.25 656.265 1330.54 Q654.136 1328.8 650.316 1328.8 L646.289 1328.8 L646.289 1324.96 L650.501 1324.96 Q653.951 1324.96 655.779 1323.6 Q657.608 1322.21 657.608 1319.61 Q657.608 1316.95 655.71 1315.54 Q653.835 1314.1 650.316 1314.1 Q648.395 1314.1 646.196 1314.52 Q643.997 1314.94 641.358 1315.82 L641.358 1311.65 Q644.02 1310.91 646.335 1310.54 Q648.673 1310.17 650.733 1310.17 Q656.057 1310.17 659.159 1312.6 Q662.261 1315.01 662.261 1319.13 Q662.261 1322 660.617 1323.99 Q658.974 1325.96 655.941 1326.72 Z" fill="#000000" fill-rule="nonzero" fill-opacity="1"></path><path clip-path="url(#clip890)" d="M681.937 1313.87 Q678.325 1313.87 676.497 1317.44 Q674.691 1320.98 674.691 1328.11 Q674.691 1335.22 676.497 1338.78 Q678.325 1342.32 681.937 1342.32 Q685.571 1342.32 687.376 1338.78 Q689.205 1335.22 689.205 1328.11 Q689.205 1320.98 687.376 1317.44 Q685.571 1313.87 681.937 1313.87 M681.937 1310.17 Q687.747 1310.17 690.802 1314.78 Q693.881 1319.36 693.881 1328.11 Q693.881 1336.84 690.802 1341.44 Q687.747 1346.03 681.937 1346.03 Q676.126 1346.03 673.048 1341.44 Q669.992 1336.84 669.992 1328.11 Q669.992 1319.36 673.048 1314.78 Q676.126 1310.17 681.937 1310.17 Z" fill="#000000" fill-rule="nonzero" fill-opacity="1"></path><path clip-path="url(#clip890)" d="M1080.01 1326.21 Q1076.86 1326.21 1075.01 1328.36 Q1073.18 1330.52 1073.18 1334.27 Q1073.18 1337.99 1075.01 1340.17 Q1076.86 1342.32 1080.01 1342.32 Q1083.16 1342.32 1084.99 1340.17 Q1086.84 1337.99 1086.84 1334.27 Q1086.84 1330.52 1084.99 1328.36 Q1083.16 1326.21 1080.01 1326.21 M1089.29 1311.56 L1089.29 1315.82 Q1087.53 1314.98 1085.73 1314.54 Q1083.95 1314.1 1082.19 1314.1 Q1077.56 1314.1 1075.1 1317.23 Q1072.67 1320.35 1072.32 1326.67 Q1073.69 1324.66 1075.75 1323.6 Q1077.81 1322.51 1080.29 1322.51 Q1085.5 1322.51 1088.51 1325.68 Q1091.54 1328.83 1091.54 1334.27 Q1091.54 1339.59 1088.39 1342.81 Q1085.24 1346.03 1080.01 1346.03 Q1074.01 1346.03 1070.84 1341.44 Q1067.67 1336.84 1067.67 1328.11 Q1067.67 1319.91 1071.56 1315.05 Q1075.45 1310.17 1082 1310.17 Q1083.76 1310.17 1085.54 1310.52 Q1087.35 1310.86 1089.29 1311.56 Z" fill="#000000" fill-rule="nonzero" fill-opacity="1"></path><path clip-path="url(#clip890)" d="M1109.59 1313.87 Q1105.98 1313.87 1104.15 1317.44 Q1102.35 1320.98 1102.35 1328.11 Q1102.35 1335.22 1104.15 1338.78 Q1105.98 1342.32 1109.59 1342.32 Q1113.23 1342.32 1115.03 1338.78 Q1116.86 1335.22 1116.86 1328.11 Q1116.86 1320.98 1115.03 1317.44 Q1113.23 1313.87 1109.59 1313.87 M1109.59 1310.17 Q1115.4 1310.17 1118.46 1314.78 Q1121.54 1319.36 1121.54 1328.11 Q1121.54 1336.84 1118.46 1341.44 Q1115.4 1346.03 1109.59 1346.03 Q1103.78 1346.03 1100.7 1341.44 Q1097.65 1336.84 1097.65 1328.11 Q1097.65 1319.36 1100.7 1314.78 Q1103.78 1310.17 1109.59 1310.17 Z" fill="#000000" fill-rule="nonzero" fill-opacity="1"></path><path clip-path="url(#clip890)" d="M1497.24 1344.64 L1497.24 1340.38 Q1499 1341.21 1500.8 1341.65 Q1502.61 1342.09 1504.35 1342.09 Q1508.97 1342.09 1511.41 1338.99 Q1513.86 1335.86 1514.21 1329.52 Q1512.86 1331.51 1510.8 1332.58 Q1508.74 1333.64 1506.24 1333.64 Q1501.06 1333.64 1498.03 1330.52 Q1495.02 1327.37 1495.02 1321.93 Q1495.02 1316.6 1498.16 1313.39 Q1501.31 1310.17 1506.54 1310.17 Q1512.54 1310.17 1515.69 1314.78 Q1518.86 1319.36 1518.86 1328.11 Q1518.86 1336.28 1514.97 1341.16 Q1511.1 1346.03 1504.55 1346.03 Q1502.79 1346.03 1500.99 1345.68 Q1499.18 1345.33 1497.24 1344.64 M1506.54 1329.98 Q1509.69 1329.98 1511.52 1327.83 Q1513.37 1325.68 1513.37 1321.93 Q1513.37 1318.2 1511.52 1316.05 Q1509.69 1313.87 1506.54 1313.87 Q1503.4 1313.87 1501.54 1316.05 Q1499.72 1318.2 1499.72 1321.93 Q1499.72 1325.68 1501.54 1327.83 Q1503.4 1329.98 1506.54 1329.98 Z" fill="#000000" fill-rule="nonzero" fill-opacity="1"></path><path clip-path="url(#clip890)" d="M1537.26 1313.87 Q1533.65 1313.87 1531.82 1317.44 Q1530.02 1320.98 1530.02 1328.11 Q1530.02 1335.22 1531.82 1338.78 Q1533.65 1342.32 1537.26 1342.32 Q1540.9 1342.32 1542.7 1338.78 Q1544.53 1335.22 1544.53 1328.11 Q1544.53 1320.98 1542.7 1317.44 Q1540.9 1313.87 1537.26 1313.87 M1537.26 1310.17 Q1543.07 1310.17 1546.13 1314.78 Q1549.21 1319.36 1549.21 1328.11 Q1549.21 1336.84 1546.13 1341.44 Q1543.07 1346.03 1537.26 1346.03 Q1531.45 1346.03 1528.37 1341.44 Q1525.32 1336.84 1525.32 1328.11 Q1525.32 1319.36 1528.37 1314.78 Q1531.45 1310.17 1537.26 1310.17 Z" fill="#000000" fill-rule="nonzero" fill-opacity="1"></path><path clip-path="url(#clip890)" d="M1909.22 1341.42 L1916.86 1341.42 L1916.86 1315.05 L1908.55 1316.72 L1908.55 1312.46 L1916.82 1310.79 L1921.49 1310.79 L1921.49 1341.42 L1929.13 1341.42 L1929.13 1345.35 L1909.22 1345.35 L1909.22 1341.42 Z" fill="#000000" fill-rule="nonzero" fill-opacity="1"></path><path clip-path="url(#clip890)" d="M1942.6 1341.42 L1958.92 1341.42 L1958.92 1345.35 L1936.98 1345.35 L1936.98 1341.42 Q1939.64 1338.66 1944.22 1334.04 Q1948.83 1329.38 1950.01 1328.04 Q1952.26 1325.52 1953.14 1323.78 Q1954.04 1322.02 1954.04 1320.33 Q1954.04 1317.58 1952.09 1315.84 Q1950.17 1314.1 1947.07 1314.1 Q1944.87 1314.1 1942.42 1314.87 Q1939.99 1315.63 1937.21 1317.18 L1937.21 1312.46 Q1940.03 1311.33 1942.49 1310.75 Q1944.94 1310.17 1946.98 1310.17 Q1952.35 1310.17 1955.54 1312.85 Q1958.74 1315.54 1958.74 1320.03 Q1958.74 1322.16 1957.93 1324.08 Q1957.14 1325.98 1955.03 1328.57 Q1954.46 1329.24 1951.35 1332.46 Q1948.25 1335.66 1942.6 1341.42 Z" fill="#000000" fill-rule="nonzero" fill-opacity="1"></path><path clip-path="url(#clip890)" d="M1978.74 1313.87 Q1975.13 1313.87 1973.3 1317.44 Q1971.49 1320.98 1971.49 1328.11 Q1971.49 1335.22 1973.3 1338.78 Q1975.13 1342.32 1978.74 1342.32 Q1982.37 1342.32 1984.18 1338.78 Q1986.01 1335.22 1986.01 1328.11 Q1986.01 1320.98 1984.18 1317.44 Q1982.37 1313.87 1978.74 1313.87 M1978.74 1310.17 Q1984.55 1310.17 1987.6 1314.78 Q1990.68 1319.36 1990.68 1328.11 Q1990.68 1336.84 1987.6 1341.44 Q1984.55 1346.03 1978.74 1346.03 Q1972.93 1346.03 1969.85 1341.44 Q1966.79 1336.84 1966.79 1328.11 Q1966.79 1319.36 1969.85 1314.78 Q1972.93 1310.17 1978.74 1310.17 Z" fill="#000000" fill-rule="nonzero" fill-opacity="1"></path><polyline clip-path="url(#clip892)" style="stroke:#000000; stroke-linecap:round; stroke-linejoin:round; stroke-width:2; stroke-opacity:0.1; fill:none" points="192.709,1165.37 2352.76,1165.37 "></polyline>
<polyline clip-path="url(#clip892)" style="stroke:#000000; stroke-linecap:round; stroke-linejoin:round; stroke-width:2; stroke-opacity:0.1; fill:none" points="192.709,899.911 2352.76,899.911 "></polyline>
<polyline clip-path="url(#clip892)" style="stroke:#000000; stroke-linecap:round; stroke-linejoin:round; stroke-width:2; stroke-opacity:0.1; fill:none" points="192.709,634.449 2352.76,634.449 "></polyline>
<polyline clip-path="url(#clip892)" style="stroke:#000000; stroke-linecap:round; stroke-linejoin:round; stroke-width:2; stroke-opacity:0.1; fill:none" points="192.709,368.987 2352.76,368.987 "></polyline>
<polyline clip-path="url(#clip892)" style="stroke:#000000; stroke-linecap:round; stroke-linejoin:round; stroke-width:2; stroke-opacity:0.1; fill:none" points="192.709,103.524 2352.76,103.524 "></polyline>
<polyline clip-path="url(#clip890)" style="stroke:#000000; stroke-linecap:round; stroke-linejoin:round; stroke-width:4; stroke-opacity:1; fill:none" points="192.709,1282.95 192.709,47.2441 "></polyline>
<polyline clip-path="url(#clip890)" style="stroke:#000000; stroke-linecap:round; stroke-linejoin:round; stroke-width:4; stroke-opacity:1; fill:none" points="192.709,1165.37 211.607,1165.37 "></polyline>
<polyline clip-path="url(#clip890)" style="stroke:#000000; stroke-linecap:round; stroke-linejoin:round; stroke-width:4; stroke-opacity:1; fill:none" points="192.709,899.911 211.607,899.911 "></polyline>
<polyline clip-path="url(#clip890)" style="stroke:#000000; stroke-linecap:round; stroke-linejoin:round; stroke-width:4; stroke-opacity:1; fill:none" points="192.709,634.449 211.607,634.449 "></polyline>
<polyline clip-path="url(#clip890)" style="stroke:#000000; stroke-linecap:round; stroke-linejoin:round; stroke-width:4; stroke-opacity:1; fill:none" points="192.709,368.987 211.607,368.987 "></polyline>
<polyline clip-path="url(#clip890)" style="stroke:#000000; stroke-linecap:round; stroke-linejoin:round; stroke-width:4; stroke-opacity:1; fill:none" points="192.709,103.524 211.607,103.524 "></polyline>
<path clip-path="url(#clip890)" d="M51.3625 1165.83 L81.0383 1165.83 L81.0383 1169.76 L51.3625 1169.76 L51.3625 1165.83 Z" fill="#000000" fill-rule="nonzero" fill-opacity="1"></path><path clip-path="url(#clip890)" d="M101.131 1151.17 Q97.5197 1151.17 95.691 1154.74 Q93.8854 1158.28 93.8854 1165.41 Q93.8854 1172.52 95.691 1176.08 Q97.5197 1179.62 101.131 1179.62 Q104.765 1179.62 106.571 1176.08 Q108.399 1172.52 108.399 1165.41 Q108.399 1158.28 106.571 1154.74 Q104.765 1151.17 101.131 1151.17 M101.131 1147.47 Q106.941 1147.47 109.996 1152.08 Q113.075 1156.66 113.075 1165.41 Q113.075 1174.14 109.996 1178.74 Q106.941 1183.33 101.131 1183.33 Q95.3206 1183.33 92.2419 1178.74 Q89.1864 1174.14 89.1864 1165.41 Q89.1864 1156.66 92.2419 1152.08 Q95.3206 1147.47 101.131 1147.47 Z" fill="#000000" fill-rule="nonzero" fill-opacity="1"></path><path clip-path="url(#clip890)" d="M121.293 1176.77 L126.177 1176.77 L126.177 1182.65 L121.293 1182.65 L121.293 1176.77 Z" fill="#000000" fill-rule="nonzero" fill-opacity="1"></path><path clip-path="url(#clip890)" d="M140.39 1178.72 L156.709 1178.72 L156.709 1182.65 L134.765 1182.65 L134.765 1178.72 Q137.427 1175.96 142.01 1171.33 Q146.617 1166.68 147.797 1165.34 Q150.043 1162.82 150.922 1161.08 Q151.825 1159.32 151.825 1157.63 Q151.825 1154.88 149.88 1153.14 Q147.959 1151.4 144.857 1151.4 Q142.658 1151.4 140.205 1152.17 Q137.774 1152.93 134.996 1154.48 L134.996 1149.76 Q137.82 1148.63 140.274 1148.05 Q142.728 1147.47 144.765 1147.47 Q150.135 1147.47 153.33 1150.15 Q156.524 1152.84 156.524 1157.33 Q156.524 1159.46 155.714 1161.38 Q154.927 1163.28 152.82 1165.87 Q152.242 1166.54 149.14 1169.76 Q146.038 1172.95 140.39 1178.72 Z" fill="#000000" fill-rule="nonzero" fill-opacity="1"></path><path clip-path="url(#clip890)" d="M50.9921 900.363 L80.6679 900.363 L80.6679 904.298 L50.9921 904.298 L50.9921 900.363 Z" fill="#000000" fill-rule="nonzero" fill-opacity="1"></path><path clip-path="url(#clip890)" d="M100.76 885.71 Q97.1493 885.71 95.3206 889.275 Q93.515 892.817 93.515 899.946 Q93.515 907.053 95.3206 910.617 Q97.1493 914.159 100.76 914.159 Q104.395 914.159 106.2 910.617 Q108.029 907.053 108.029 899.946 Q108.029 892.817 106.2 889.275 Q104.395 885.71 100.76 885.71 M100.76 882.006 Q106.571 882.006 109.626 886.613 Q112.705 891.196 112.705 899.946 Q112.705 908.673 109.626 913.279 Q106.571 917.863 100.76 917.863 Q94.9502 917.863 91.8715 913.279 Q88.816 908.673 88.816 899.946 Q88.816 891.196 91.8715 886.613 Q94.9502 882.006 100.76 882.006 Z" fill="#000000" fill-rule="nonzero" fill-opacity="1"></path><path clip-path="url(#clip890)" d="M120.922 911.312 L125.807 911.312 L125.807 917.191 L120.922 917.191 L120.922 911.312 Z" fill="#000000" fill-rule="nonzero" fill-opacity="1"></path><path clip-path="url(#clip890)" d="M136.802 913.256 L144.441 913.256 L144.441 886.891 L136.131 888.557 L136.131 884.298 L144.394 882.631 L149.07 882.631 L149.07 913.256 L156.709 913.256 L156.709 917.191 L136.802 917.191 L136.802 913.256 Z" fill="#000000" fill-rule="nonzero" fill-opacity="1"></path><path clip-path="url(#clip890)" d="M99.5335 620.248 Q95.9224 620.248 94.0937 623.812 Q92.2882 627.354 92.2882 634.484 Q92.2882 641.59 94.0937 645.155 Q95.9224 648.697 99.5335 648.697 Q103.168 648.697 104.973 645.155 Q106.802 641.59 106.802 634.484 Q106.802 627.354 104.973 623.812 Q103.168 620.248 99.5335 620.248 M99.5335 616.544 Q105.344 616.544 108.399 621.15 Q111.478 625.734 111.478 634.484 Q111.478 643.211 108.399 647.817 Q105.344 652.4 99.5335 652.4 Q93.7234 652.4 90.6447 647.817 Q87.5892 643.211 87.5892 634.484 Q87.5892 625.734 90.6447 621.15 Q93.7234 616.544 99.5335 616.544 Z" fill="#000000" fill-rule="nonzero" fill-opacity="1"></path><path clip-path="url(#clip890)" d="M119.695 645.849 L124.58 645.849 L124.58 651.729 L119.695 651.729 L119.695 645.849 Z" fill="#000000" fill-rule="nonzero" fill-opacity="1"></path><path clip-path="url(#clip890)" d="M144.765 620.248 Q141.154 620.248 139.325 623.812 Q137.519 627.354 137.519 634.484 Q137.519 641.59 139.325 645.155 Q141.154 648.697 144.765 648.697 Q148.399 648.697 150.205 645.155 Q152.033 641.59 152.033 634.484 Q152.033 627.354 150.205 623.812 Q148.399 620.248 144.765 620.248 M144.765 616.544 Q150.575 616.544 153.63 621.15 Q156.709 625.734 156.709 634.484 Q156.709 643.211 153.63 647.817 Q150.575 652.4 144.765 652.4 Q138.955 652.4 135.876 647.817 Q132.82 643.211 132.82 634.484 Q132.82 625.734 135.876 621.15 Q138.955 616.544 144.765 616.544 Z" fill="#000000" fill-rule="nonzero" fill-opacity="1"></path><path clip-path="url(#clip890)" d="M100.76 354.785 Q97.1493 354.785 95.3206 358.35 Q93.515 361.892 93.515 369.021 Q93.515 376.128 95.3206 379.693 Q97.1493 383.234 100.76 383.234 Q104.395 383.234 106.2 379.693 Q108.029 376.128 108.029 369.021 Q108.029 361.892 106.2 358.35 Q104.395 354.785 100.76 354.785 M100.76 351.082 Q106.571 351.082 109.626 355.688 Q112.705 360.271 112.705 369.021 Q112.705 377.748 109.626 382.355 Q106.571 386.938 100.76 386.938 Q94.9502 386.938 91.8715 382.355 Q88.816 377.748 88.816 369.021 Q88.816 360.271 91.8715 355.688 Q94.9502 351.082 100.76 351.082 Z" fill="#000000" fill-rule="nonzero" fill-opacity="1"></path><path clip-path="url(#clip890)" d="M120.922 380.387 L125.807 380.387 L125.807 386.267 L120.922 386.267 L120.922 380.387 Z" fill="#000000" fill-rule="nonzero" fill-opacity="1"></path><path clip-path="url(#clip890)" d="M136.802 382.331 L144.441 382.331 L144.441 355.966 L136.131 357.632 L136.131 353.373 L144.394 351.707 L149.07 351.707 L149.07 382.331 L156.709 382.331 L156.709 386.267 L136.802 386.267 L136.802 382.331 Z" fill="#000000" fill-rule="nonzero" fill-opacity="1"></path><path clip-path="url(#clip890)" d="M101.131 89.3228 Q97.5197 89.3228 95.691 92.8876 Q93.8854 96.4292 93.8854 103.559 Q93.8854 110.665 95.691 114.23 Q97.5197 117.772 101.131 117.772 Q104.765 117.772 106.571 114.23 Q108.399 110.665 108.399 103.559 Q108.399 96.4292 106.571 92.8876 Q104.765 89.3228 101.131 89.3228 M101.131 85.6191 Q106.941 85.6191 109.996 90.2255 Q113.075 94.8088 113.075 103.559 Q113.075 112.286 109.996 116.892 Q106.941 121.475 101.131 121.475 Q95.3206 121.475 92.2419 116.892 Q89.1864 112.286 89.1864 103.559 Q89.1864 94.8088 92.2419 90.2255 Q95.3206 85.6191 101.131 85.6191 Z" fill="#000000" fill-rule="nonzero" fill-opacity="1"></path><path clip-path="url(#clip890)" d="M121.293 114.924 L126.177 114.924 L126.177 120.804 L121.293 120.804 L121.293 114.924 Z" fill="#000000" fill-rule="nonzero" fill-opacity="1"></path><path clip-path="url(#clip890)" d="M140.39 116.869 L156.709 116.869 L156.709 120.804 L134.765 120.804 L134.765 116.869 Q137.427 114.114 142.01 109.485 Q146.617 104.832 147.797 103.489 Q150.043 100.966 150.922 99.2301 Q151.825 97.4709 151.825 95.7811 Q151.825 93.0264 149.88 91.2903 Q147.959 89.5542 144.857 89.5542 Q142.658 89.5542 140.205 90.3181 Q137.774 91.082 134.996 92.6329 L134.996 87.9107 Q137.82 86.7765 140.274 86.1978 Q142.728 85.6191 144.765 85.6191 Q150.135 85.6191 153.33 88.3042 Q156.524 90.9894 156.524 95.4801 Q156.524 97.6098 155.714 99.531 Q154.927 101.429 152.82 104.022 Q152.242 104.693 149.14 107.911 Q146.038 111.105 140.39 116.869 Z" fill="#000000" fill-rule="nonzero" fill-opacity="1"></path><polyline clip-path="url(#clip892)" style="stroke:#000000; stroke-linecap:round; stroke-linejoin:round; stroke-width:8; stroke-opacity:1; fill:none" points="253.843,935.633 268.093,955.155 282.343,629.516 296.593,725.118 310.843,719.66 325.094,383.977 339.344,82.217 353.594,140.035 367.844,506.485 382.094,871.467 396.345,1247.98 410.595,951.64 424.845,935.633 439.095,955.155 453.345,629.516 467.596,725.118 481.846,719.66 496.096,383.977 510.346,82.217 524.597,140.035 538.847,506.485 553.097,871.467 567.347,1247.98 581.597,951.64 595.848,935.633 610.098,955.155 624.348,629.516 638.598,725.118 652.848,719.66 667.099,383.977 681.349,82.217 695.599,140.035 709.849,506.485 724.099,871.467 738.35,1247.98 752.6,951.64 766.85,935.633 781.1,955.155 795.351,629.516 809.601,725.118 823.851,719.66 838.101,383.977 852.351,82.217 866.602,140.035 880.852,506.485 895.102,871.467 909.352,1247.98 923.602,951.64 937.853,935.633 952.103,955.155 966.353,629.516 980.603,725.118 994.853,719.66 1009.1,383.977 1023.35,82.217 1037.6,140.035 1051.85,506.485 1066.1,871.467 1080.35,1247.98 1094.6,951.64 1108.86,935.633 1123.11,955.155 1137.36,629.516 1151.61,725.118 1165.86,719.66 1180.11,383.977 1194.36,82.217 1208.61,140.035 1222.86,506.485 1237.11,871.467 1251.36,1247.98 1265.61,951.64 1279.86,905.986 1294.11,984.802 1308.36,629.516 1322.61,725.118 1336.86,719.66 1351.11,383.977 1365.36,82.217 1379.61,140.035 1393.86,506.485 1408.11,871.467 1422.36,1247.98 1436.61,951.64 1450.86,905.986 1465.11,984.802 1479.36,629.516 1493.61,725.118 1507.86,719.66 1522.11,383.977 1536.36,82.217 1550.61,140.035 1564.86,506.485 1579.11,871.467 1593.36,1247.98 1607.61,951.64 1621.86,902.018 1636.11,988.771 1650.36,629.516 1664.61,725.118 1678.86,719.66 1693.11,383.977 1707.36,82.217 1721.61,140.035 1735.86,506.485 1750.11,871.467 1764.36,1247.98 1778.61,951.64 1792.87,902.018 1807.12,988.771 1821.37,629.516 1835.62,725.118 1849.87,719.66 1864.12,383.977 1878.37,82.217 1892.62,110.281 1906.87,536.24 1921.12,871.467 1935.37,1247.98 1949.62,951.64 1963.87,902.018 1978.12,988.771 1992.37,629.516 2006.62,725.118 2020.87,719.66 2035.12,383.977 2049.37,82.217 2063.62,110.281 2077.87,536.24 2092.12,871.467 2106.37,1247.98 2120.62,951.64 2134.87,902.018 2149.12,988.771 2163.37,629.516 2177.62,725.118 2191.87,719.66 2206.12,383.977 2220.37,82.217 2234.62,110.281 2248.87,536.24 2263.12,871.467 2277.37,1247.98 2291.62,951.64 "></polyline>
<path clip-path="url(#clip890)" d="M914.569 1486.45 L1630.9 1486.45 L1630.9 1382.77 L914.569 1382.77  Z" fill="#ffffff" fill-rule="evenodd" fill-opacity="1"></path>
<polyline clip-path="url(#clip890)" style="stroke:#000000; stroke-linecap:round; stroke-linejoin:round; stroke-width:4; stroke-opacity:1; fill:none" points="914.569,1486.45 1630.9,1486.45 1630.9,1382.77 914.569,1382.77 914.569,1486.45 "></polyline>
<polyline clip-path="url(#clip890)" style="stroke:#000000; stroke-linecap:round; stroke-linejoin:round; stroke-width:8; stroke-opacity:1; fill:none" points="938.57,1434.61 1082.57,1434.61 "></polyline>
<path clip-path="url(#clip890)" d="M1128.82 1418.46 L1128.82 1423.02 Q1126.16 1421.75 1123.8 1421.12 Q1121.43 1420.5 1119.24 1420.5 Q1115.42 1420.5 1113.33 1421.98 Q1111.27 1423.46 1111.27 1426.19 Q1111.27 1428.49 1112.64 1429.67 Q1114.03 1430.82 1117.87 1431.54 L1120.69 1432.12 Q1125.93 1433.11 1128.4 1435.64 Q1130.9 1438.14 1130.9 1442.35 Q1130.9 1447.37 1127.52 1449.97 Q1124.17 1452.56 1117.66 1452.56 Q1115.21 1452.56 1112.43 1452 Q1109.68 1451.45 1106.71 1450.36 L1106.71 1445.55 Q1109.56 1447.14 1112.29 1447.95 Q1115.02 1448.76 1117.66 1448.76 Q1121.67 1448.76 1123.84 1447.19 Q1126.02 1445.61 1126.02 1442.7 Q1126.02 1440.15 1124.44 1438.72 Q1122.89 1437.28 1119.33 1436.56 L1116.48 1436.01 Q1111.25 1434.97 1108.91 1432.74 Q1106.57 1430.52 1106.57 1426.56 Q1106.57 1421.98 1109.79 1419.34 Q1113.03 1416.7 1118.7 1416.7 Q1121.13 1416.7 1123.66 1417.14 Q1126.18 1417.58 1128.82 1418.46 Z" fill="#000000" fill-rule="nonzero" fill-opacity="1"></path><path clip-path="url(#clip890)" d="M1160.18 1437.86 L1160.18 1439.94 L1140.6 1439.94 Q1140.88 1444.34 1143.24 1446.66 Q1145.62 1448.95 1149.86 1448.95 Q1152.31 1448.95 1154.61 1448.35 Q1156.92 1447.74 1159.19 1446.54 L1159.19 1450.57 Q1156.9 1451.54 1154.49 1452.05 Q1152.08 1452.56 1149.61 1452.56 Q1143.4 1452.56 1139.77 1448.95 Q1136.16 1445.34 1136.16 1439.18 Q1136.16 1432.81 1139.58 1429.09 Q1143.03 1425.34 1148.87 1425.34 Q1154.1 1425.34 1157.13 1428.72 Q1160.18 1432.07 1160.18 1437.86 M1155.93 1436.61 Q1155.88 1433.11 1153.96 1431.03 Q1152.06 1428.95 1148.91 1428.95 Q1145.35 1428.95 1143.19 1430.96 Q1141.06 1432.98 1140.74 1436.63 L1155.93 1436.61 Z" fill="#000000" fill-rule="nonzero" fill-opacity="1"></path><path clip-path="url(#clip890)" d="M1178.96 1438.86 Q1173.8 1438.86 1171.8 1440.04 Q1169.81 1441.22 1169.81 1444.06 Q1169.81 1446.33 1171.3 1447.67 Q1172.8 1448.99 1175.37 1448.99 Q1178.91 1448.99 1181.04 1446.49 Q1183.19 1443.97 1183.19 1439.8 L1183.19 1438.86 L1178.96 1438.86 M1187.45 1437.1 L1187.45 1451.89 L1183.19 1451.89 L1183.19 1447.95 Q1181.74 1450.31 1179.56 1451.45 Q1177.38 1452.56 1174.24 1452.56 Q1170.25 1452.56 1167.89 1450.34 Q1165.55 1448.09 1165.55 1444.34 Q1165.55 1439.97 1168.47 1437.74 Q1171.41 1435.52 1177.22 1435.52 L1183.19 1435.52 L1183.19 1435.11 Q1183.19 1432.17 1181.25 1430.57 Q1179.33 1428.95 1175.83 1428.95 Q1173.61 1428.95 1171.5 1429.48 Q1169.4 1430.01 1167.45 1431.08 L1167.45 1427.14 Q1169.79 1426.24 1171.99 1425.8 Q1174.19 1425.34 1176.27 1425.34 Q1181.9 1425.34 1184.68 1428.25 Q1187.45 1431.17 1187.45 1437.1 Z" fill="#000000" fill-rule="nonzero" fill-opacity="1"></path><path clip-path="url(#clip890)" d="M1212.75 1426.73 L1212.75 1430.75 Q1210.95 1429.83 1209 1429.36 Q1207.06 1428.9 1204.98 1428.9 Q1201.8 1428.9 1200.21 1429.87 Q1198.63 1430.85 1198.63 1432.79 Q1198.63 1434.27 1199.77 1435.13 Q1200.9 1435.96 1204.33 1436.73 L1205.79 1437.05 Q1210.32 1438.02 1212.22 1439.8 Q1214.14 1441.56 1214.14 1444.74 Q1214.14 1448.35 1211.27 1450.45 Q1208.42 1452.56 1203.42 1452.56 Q1201.34 1452.56 1199.07 1452.14 Q1196.83 1451.75 1194.33 1450.94 L1194.33 1446.54 Q1196.69 1447.77 1198.98 1448.39 Q1201.27 1448.99 1203.52 1448.99 Q1206.53 1448.99 1208.15 1447.98 Q1209.77 1446.93 1209.77 1445.06 Q1209.77 1443.32 1208.59 1442.4 Q1207.43 1441.47 1203.47 1440.61 L1201.99 1440.27 Q1198.03 1439.43 1196.27 1437.72 Q1194.51 1435.99 1194.51 1432.98 Q1194.51 1429.32 1197.11 1427.33 Q1199.7 1425.34 1204.47 1425.34 Q1206.83 1425.34 1208.91 1425.68 Q1210.99 1426.03 1212.75 1426.73 Z" fill="#000000" fill-rule="nonzero" fill-opacity="1"></path><path clip-path="url(#clip890)" d="M1230.97 1428.95 Q1227.55 1428.95 1225.55 1431.63 Q1223.56 1434.3 1223.56 1438.95 Q1223.56 1443.6 1225.53 1446.29 Q1227.52 1448.95 1230.97 1448.95 Q1234.37 1448.95 1236.36 1446.26 Q1238.36 1443.58 1238.36 1438.95 Q1238.36 1434.34 1236.36 1431.66 Q1234.37 1428.95 1230.97 1428.95 M1230.97 1425.34 Q1236.53 1425.34 1239.7 1428.95 Q1242.87 1432.56 1242.87 1438.95 Q1242.87 1445.31 1239.7 1448.95 Q1236.53 1452.56 1230.97 1452.56 Q1225.39 1452.56 1222.22 1448.95 Q1219.07 1445.31 1219.07 1438.95 Q1219.07 1432.56 1222.22 1428.95 Q1225.39 1425.34 1230.97 1425.34 Z" fill="#000000" fill-rule="nonzero" fill-opacity="1"></path><path clip-path="url(#clip890)" d="M1271.48 1436.24 L1271.48 1451.89 L1267.22 1451.89 L1267.22 1436.38 Q1267.22 1432.7 1265.79 1430.87 Q1264.35 1429.04 1261.48 1429.04 Q1258.03 1429.04 1256.04 1431.24 Q1254.05 1433.44 1254.05 1437.24 L1254.05 1451.89 L1249.77 1451.89 L1249.77 1425.96 L1254.05 1425.96 L1254.05 1429.99 Q1255.58 1427.65 1257.64 1426.49 Q1259.72 1425.34 1262.43 1425.34 Q1266.9 1425.34 1269.19 1428.11 Q1271.48 1430.87 1271.48 1436.24 Z" fill="#000000" fill-rule="nonzero" fill-opacity="1"></path><path clip-path="url(#clip890)" d="M1291.76 1438.86 Q1286.6 1438.86 1284.61 1440.04 Q1282.61 1441.22 1282.61 1444.06 Q1282.61 1446.33 1284.1 1447.67 Q1285.6 1448.99 1288.17 1448.99 Q1291.71 1448.99 1293.84 1446.49 Q1295.99 1443.97 1295.99 1439.8 L1295.99 1438.86 L1291.76 1438.86 M1300.25 1437.1 L1300.25 1451.89 L1295.99 1451.89 L1295.99 1447.95 Q1294.54 1450.31 1292.36 1451.45 Q1290.18 1452.56 1287.04 1452.56 Q1283.05 1452.56 1280.69 1450.34 Q1278.36 1448.09 1278.36 1444.34 Q1278.36 1439.97 1281.27 1437.74 Q1284.21 1435.52 1290.02 1435.52 L1295.99 1435.52 L1295.99 1435.11 Q1295.99 1432.17 1294.05 1430.57 Q1292.13 1428.95 1288.63 1428.95 Q1286.41 1428.95 1284.3 1429.48 Q1282.2 1430.01 1280.25 1431.08 L1280.25 1427.14 Q1282.59 1426.24 1284.79 1425.8 Q1286.99 1425.34 1289.07 1425.34 Q1294.7 1425.34 1297.48 1428.25 Q1300.25 1431.17 1300.25 1437.1 Z" fill="#000000" fill-rule="nonzero" fill-opacity="1"></path><path clip-path="url(#clip890)" d="M1309.03 1415.87 L1313.29 1415.87 L1313.29 1451.89 L1309.03 1451.89 L1309.03 1415.87 Z" fill="#000000" fill-rule="nonzero" fill-opacity="1"></path><path clip-path="url(#clip890)" d="M1363.33 1419.99 L1363.33 1424.92 Q1360.97 1422.72 1358.29 1421.63 Q1355.62 1420.55 1352.61 1420.55 Q1346.69 1420.55 1343.54 1424.18 Q1340.39 1427.79 1340.39 1434.64 Q1340.39 1441.47 1343.54 1445.11 Q1346.69 1448.72 1352.61 1448.72 Q1355.62 1448.72 1358.29 1447.63 Q1360.97 1446.54 1363.33 1444.34 L1363.33 1449.23 Q1360.88 1450.89 1358.12 1451.73 Q1355.39 1452.56 1352.34 1452.56 Q1344.49 1452.56 1339.98 1447.77 Q1335.46 1442.95 1335.46 1434.64 Q1335.46 1426.31 1339.98 1421.52 Q1344.49 1416.7 1352.34 1416.7 Q1355.44 1416.7 1358.17 1417.54 Q1360.92 1418.35 1363.33 1419.99 Z" fill="#000000" fill-rule="nonzero" fill-opacity="1"></path><path clip-path="url(#clip890)" d="M1380.41 1428.95 Q1376.99 1428.95 1375 1431.63 Q1373.01 1434.3 1373.01 1438.95 Q1373.01 1443.6 1374.97 1446.29 Q1376.97 1448.95 1380.41 1448.95 Q1383.82 1448.95 1385.81 1446.26 Q1387.8 1443.58 1387.8 1438.95 Q1387.8 1434.34 1385.81 1431.66 Q1383.82 1428.95 1380.41 1428.95 M1380.41 1425.34 Q1385.97 1425.34 1389.14 1428.95 Q1392.31 1432.56 1392.31 1438.95 Q1392.31 1445.31 1389.14 1448.95 Q1385.97 1452.56 1380.41 1452.56 Q1374.84 1452.56 1371.66 1448.95 Q1368.52 1445.31 1368.52 1438.95 Q1368.52 1432.56 1371.66 1428.95 Q1374.84 1425.34 1380.41 1425.34 Z" fill="#000000" fill-rule="nonzero" fill-opacity="1"></path><path clip-path="url(#clip890)" d="M1419.56 1430.94 Q1421.16 1428.07 1423.38 1426.7 Q1425.6 1425.34 1428.61 1425.34 Q1432.66 1425.34 1434.86 1428.18 Q1437.06 1431.01 1437.06 1436.24 L1437.06 1451.89 L1432.78 1451.89 L1432.78 1436.38 Q1432.78 1432.65 1431.46 1430.85 Q1430.14 1429.04 1427.43 1429.04 Q1424.12 1429.04 1422.2 1431.24 Q1420.28 1433.44 1420.28 1437.24 L1420.28 1451.89 L1415.99 1451.89 L1415.99 1436.38 Q1415.99 1432.63 1414.67 1430.85 Q1413.35 1429.04 1410.6 1429.04 Q1407.34 1429.04 1405.41 1431.26 Q1403.49 1433.46 1403.49 1437.24 L1403.49 1451.89 L1399.21 1451.89 L1399.21 1425.96 L1403.49 1425.96 L1403.49 1429.99 Q1404.95 1427.61 1406.99 1426.47 Q1409.03 1425.34 1411.83 1425.34 Q1414.65 1425.34 1416.62 1426.77 Q1418.61 1428.21 1419.56 1430.94 Z" fill="#000000" fill-rule="nonzero" fill-opacity="1"></path><path clip-path="url(#clip890)" d="M1449.67 1448 L1449.67 1461.75 L1445.39 1461.75 L1445.39 1425.96 L1449.67 1425.96 L1449.67 1429.9 Q1451.02 1427.58 1453.05 1426.47 Q1455.11 1425.34 1457.96 1425.34 Q1462.68 1425.34 1465.62 1429.09 Q1468.59 1432.84 1468.59 1438.95 Q1468.59 1445.06 1465.62 1448.81 Q1462.68 1452.56 1457.96 1452.56 Q1455.11 1452.56 1453.05 1451.45 Q1451.02 1450.31 1449.67 1448 M1464.16 1438.95 Q1464.16 1434.25 1462.22 1431.59 Q1460.3 1428.9 1456.92 1428.9 Q1453.54 1428.9 1451.59 1431.59 Q1449.67 1434.25 1449.67 1438.95 Q1449.67 1443.65 1451.59 1446.33 Q1453.54 1448.99 1456.92 1448.99 Q1460.3 1448.99 1462.22 1446.33 Q1464.16 1443.65 1464.16 1438.95 Z" fill="#000000" fill-rule="nonzero" fill-opacity="1"></path><path clip-path="url(#clip890)" d="M1485.69 1428.95 Q1482.27 1428.95 1480.28 1431.63 Q1478.28 1434.3 1478.28 1438.95 Q1478.28 1443.6 1480.25 1446.29 Q1482.24 1448.95 1485.69 1448.95 Q1489.09 1448.95 1491.09 1446.26 Q1493.08 1443.58 1493.08 1438.95 Q1493.08 1434.34 1491.09 1431.66 Q1489.09 1428.95 1485.69 1428.95 M1485.69 1425.34 Q1491.25 1425.34 1494.42 1428.95 Q1497.59 1432.56 1497.59 1438.95 Q1497.59 1445.31 1494.42 1448.95 Q1491.25 1452.56 1485.69 1452.56 Q1480.11 1452.56 1476.94 1448.95 Q1473.79 1445.31 1473.79 1438.95 Q1473.79 1432.56 1476.94 1428.95 Q1480.11 1425.34 1485.69 1425.34 Z" fill="#000000" fill-rule="nonzero" fill-opacity="1"></path><path clip-path="url(#clip890)" d="M1526.2 1436.24 L1526.2 1451.89 L1521.94 1451.89 L1521.94 1436.38 Q1521.94 1432.7 1520.51 1430.87 Q1519.07 1429.04 1516.2 1429.04 Q1512.75 1429.04 1510.76 1431.24 Q1508.77 1433.44 1508.77 1437.24 L1508.77 1451.89 L1504.49 1451.89 L1504.49 1425.96 L1508.77 1425.96 L1508.77 1429.99 Q1510.3 1427.65 1512.36 1426.49 Q1514.44 1425.34 1517.15 1425.34 Q1521.62 1425.34 1523.91 1428.11 Q1526.2 1430.87 1526.2 1436.24 Z" fill="#000000" fill-rule="nonzero" fill-opacity="1"></path><path clip-path="url(#clip890)" d="M1556.87 1437.86 L1556.87 1439.94 L1537.29 1439.94 Q1537.57 1444.34 1539.93 1446.66 Q1542.31 1448.95 1546.55 1448.95 Q1549 1448.95 1551.29 1448.35 Q1553.61 1447.74 1555.88 1446.54 L1555.88 1450.57 Q1553.59 1451.54 1551.18 1452.05 Q1548.77 1452.56 1546.29 1452.56 Q1540.09 1452.56 1536.46 1448.95 Q1532.84 1445.34 1532.84 1439.18 Q1532.84 1432.81 1536.27 1429.09 Q1539.72 1425.34 1545.55 1425.34 Q1550.78 1425.34 1553.82 1428.72 Q1556.87 1432.07 1556.87 1437.86 M1552.61 1436.61 Q1552.57 1433.11 1550.65 1431.03 Q1548.75 1428.95 1545.6 1428.95 Q1542.03 1428.95 1539.88 1430.96 Q1537.75 1432.98 1537.43 1436.63 L1552.61 1436.61 Z" fill="#000000" fill-rule="nonzero" fill-opacity="1"></path><path clip-path="url(#clip890)" d="M1585.41 1436.24 L1585.41 1451.89 L1581.15 1451.89 L1581.15 1436.38 Q1581.15 1432.7 1579.72 1430.87 Q1578.28 1429.04 1575.41 1429.04 Q1571.96 1429.04 1569.97 1431.24 Q1567.98 1433.44 1567.98 1437.24 L1567.98 1451.89 L1563.7 1451.89 L1563.7 1425.96 L1567.98 1425.96 L1567.98 1429.99 Q1569.51 1427.65 1571.57 1426.49 Q1573.65 1425.34 1576.36 1425.34 Q1580.83 1425.34 1583.12 1428.11 Q1585.41 1430.87 1585.41 1436.24 Z" fill="#000000" fill-rule="nonzero" fill-opacity="1"></path><path clip-path="url(#clip890)" d="M1598.12 1418.6 L1598.12 1425.96 L1606.9 1425.96 L1606.9 1429.27 L1598.12 1429.27 L1598.12 1443.35 Q1598.12 1446.52 1598.98 1447.42 Q1599.86 1448.32 1602.52 1448.32 L1606.9 1448.32 L1606.9 1451.89 L1602.52 1451.89 Q1597.59 1451.89 1595.71 1450.06 Q1593.84 1448.21 1593.84 1443.35 L1593.84 1429.27 L1590.71 1429.27 L1590.71 1425.96 L1593.84 1425.96 L1593.84 1418.6 L1598.12 1418.6 Z" fill="#000000" fill-rule="nonzero" fill-opacity="1"></path></svg>