<svg xmlns="http://www.w3.org/2000/svg" xmlns:xlink="http://www.w3.org/1999/xlink" width="600" height="400" viewBox="0 0 2400 1600">
<defs>
  <clipPath id="clip930">
    <rect x="0" y="0" width="2400" height="1600"></rect>
  </clipPath>
</defs>
<path clip-path="url(#clip930)" d="M0 1600 L2400 1600 L2400 8.88178e-14 L0 8.88178e-14  Z" fill="#ffffff" fill-rule="evenodd" fill-opacity="1"></path>
<defs>
  <clipPath id="clip931">
    <rect x="480" y="0" width="1681" height="1600"></rect>
  </clipPath>
</defs>
<path clip-path="url(#clip930)" d="M186.089 1282.95 L2352.76 1282.95 L2352.76 47.2441 L186.089 47.2441  Z" fill="#ffffff" fill-rule="evenodd" fill-opacity="1"></path>
<defs>
  <clipPath id="clip932">
    <rect x="186" y="47" width="2168" height="1237"></rect>
  </clipPath>
</defs>
<polyline clip-path="url(#clip932)" style="stroke:#000000; stroke-linecap:round; stroke-linejoin:round; stroke-width:2; stroke-opacity:0.1; fill:none" points="233.116,1282.95 233.116,47.2441 "></polyline>
<polyline clip-path="url(#clip932)" style="stroke:#000000; stroke-linecap:round; stroke-linejoin:round; stroke-width:2; stroke-opacity:0.1; fill:none" points="661.932,1282.95 661.932,47.2441 "></polyline>
<polyline clip-path="url(#clip932)" style="stroke:#000000; stroke-linecap:round; stroke-linejoin:round; stroke-width:2; stroke-opacity:0.1; fill:none" points="1090.75,1282.95 1090.75,47.2441 "></polyline>
<polyline clip-path="url(#clip932)" style="stroke:#000000; stroke-linecap:round; stroke-linejoin:round; stroke-width:2; stroke-opacity:0.1; fill:none" points="1519.57,1282.95 1519.57,47.2441 "></polyline>
<polyline clip-path="url(#clip932)" style="stroke:#000000; stroke-linecap:round; stroke-linejoin:round; stroke-width:2; stroke-opacity:0.1; fill:none" points="1948.38,1282.95 1948.38,47.2441 "></polyline>
<polyline clip-path="url(#clip930)" style="stroke:#000000; stroke-linecap:round; stroke-linejoin:round; stroke-width:4; stroke-opacity:1; fill:none" points="186.089,1282.95 2352.76,1282.95 "></polyline>
<polyline clip-path="url(#clip930)" style="stroke:#000000; stroke-linecap:round; stroke-linejoin:round; stroke-width:4; stroke-opacity:1; fill:none" points="233.116,1282.95 233.116,1266.73 "></polyline>
<polyline clip-path="url(#clip930)" style="stroke:#000000; stroke-linecap:round; stroke-linejoin:round; stroke-width:4; stroke-opacity:1; fill:none" points="661.932,1282.95 661.932,1266.73 "></polyline>
<polyline clip-path="url(#clip930)" style="stroke:#000000; stroke-linecap:round; stroke-linejoin:round; stroke-width:4; stroke-opacity:1; fill:none" points="1090.75,1282.95 1090.75,1266.73 "></polyline>
<polyline clip-path="url(#clip930)" style="stroke:#000000; stroke-linecap:round; stroke-linejoin:round; stroke-width:4; stroke-opacity:1; fill:none" points="1519.57,1282.95 1519.57,1266.73 "></polyline>
<polyline clip-path="url(#clip930)" style="stroke:#000000; stroke-linecap:round; stroke-linejoin:round; stroke-width:4; stroke-opacity:1; fill:none" points="1948.38,1282.95 1948.38,1266.73 "></polyline>
<path clip-path="url(#clip930)" d="M233.116 1313.87 Q229.505 1313.87 227.676 1317.44 Q225.87 1320.98 225.87 1328.11 Q225.87 1335.22 227.676 1338.78 Q229.505 1342.32 233.116 1342.32 Q236.75 1342.32 238.555 1338.78 Q240.384 1335.22 240.384 1328.11 Q240.384 1320.98 238.555 1317.44 Q236.75 1313.87 233.116 1313.87 M233.116 1310.17 Q238.926 1310.17 241.981 1314.78 Q245.06 1319.36 245.06 1328.11 Q245.06 1336.84 241.981 1341.44 Q238.926 1346.03 233.116 1346.03 Q227.306 1346.03 224.227 1341.44 Q221.171 1336.84 221.171 1328.11 Q221.171 1319.36 224.227 1314.78 Q227.306 1310.17 233.116 1310.17 Z" fill="#000000" fill-rule="nonzero" fill-opacity="1"></path><path clip-path="url(#clip930)" d="M650.775 1326.72 Q654.131 1327.44 656.006 1329.71 Q657.904 1331.97 657.904 1335.31 Q657.904 1340.42 654.386 1343.22 Q650.867 1346.03 644.386 1346.03 Q642.21 1346.03 639.895 1345.59 Q637.604 1345.17 635.15 1344.31 L635.15 1339.8 Q637.094 1340.93 639.409 1341.51 Q641.724 1342.09 644.247 1342.09 Q648.645 1342.09 650.937 1340.35 Q653.252 1338.62 653.252 1335.31 Q653.252 1332.25 651.099 1330.54 Q648.969 1328.8 645.15 1328.8 L641.122 1328.8 L641.122 1324.96 L645.335 1324.96 Q648.784 1324.96 650.613 1323.6 Q652.442 1322.21 652.442 1319.61 Q652.442 1316.95 650.543 1315.54 Q648.668 1314.1 645.15 1314.1 Q643.229 1314.1 641.03 1314.52 Q638.831 1314.94 636.192 1315.82 L636.192 1311.65 Q638.854 1310.91 641.168 1310.54 Q643.506 1310.17 645.567 1310.17 Q650.891 1310.17 653.992 1312.6 Q657.094 1315.01 657.094 1319.13 Q657.094 1322 655.451 1323.99 Q653.807 1325.96 650.775 1326.72 Z" fill="#000000" fill-rule="nonzero" fill-opacity="1"></path><path clip-path="url(#clip930)" d="M676.77 1313.87 Q673.159 1313.87 671.33 1317.44 Q669.525 1320.98 669.525 1328.11 Q669.525 1335.22 671.33 1338.78 Q673.159 1342.32 676.77 1342.32 Q680.404 1342.32 682.21 1338.78 Q684.039 1335.22 684.039 1328.11 Q684.039 1320.98 682.21 1317.44 Q680.404 1313.87 676.77 1313.87 M676.77 1310.17 Q682.58 1310.17 685.636 1314.78 Q688.715 1319.36 688.715 1328.11 Q688.715 1336.84 685.636 1341.44 Q682.58 1346.03 676.77 1346.03 Q670.96 1346.03 667.881 1341.44 Q664.826 1336.84 664.826 1328.11 Q664.826 1319.36 667.881 1314.78 Q670.96 1310.17 676.77 1310.17 Z" fill="#000000" fill-rule="nonzero" fill-opacity="1"></path><path clip-path="url(#clip930)" d="M1076.15 1326.21 Q1073.01 1326.21 1071.15 1328.36 Q1069.33 1330.52 1069.33 1334.27 Q1069.33 1337.99 1071.15 1340.17 Q1073.01 1342.32 1076.15 1342.32 Q1079.3 1342.32 1081.13 1340.17 Q1082.98 1337.99 1082.98 1334.27 Q1082.98 1330.52 1081.13 1328.36 Q1079.3 1326.21 1076.15 1326.21 M1085.44 1311.56 L1085.44 1315.82 Q1083.68 1314.98 1081.87 1314.54 Q1080.09 1314.1 1078.33 1314.1 Q1073.7 1314.1 1071.25 1317.23 Q1068.82 1320.35 1068.47 1326.67 Q1069.83 1324.66 1071.89 1323.6 Q1073.95 1322.51 1076.43 1322.51 Q1081.64 1322.51 1084.65 1325.68 Q1087.68 1328.83 1087.68 1334.27 Q1087.68 1339.59 1084.53 1342.81 Q1081.39 1346.03 1076.15 1346.03 Q1070.16 1346.03 1066.99 1341.44 Q1063.82 1336.84 1063.82 1328.11 Q1063.82 1319.91 1067.7 1315.05 Q1071.59 1310.17 1078.14 1310.17 Q1079.9 1310.17 1081.69 1310.52 Q1083.49 1310.86 1085.44 1311.56 Z" fill="#000000" fill-rule="nonzero" fill-opacity="1"></path><path clip-path="url(#clip930)" d="M1105.74 1313.87 Q1102.13 1313.87 1100.3 1317.44 Q1098.49 1320.98 1098.49 1328.11 Q1098.49 1335.22 1100.3 1338.78 Q1102.13 1342.32 1105.74 1342.32 Q1109.37 1342.32 1111.18 1338.78 Q1113.01 1335.22 1113.01 1328.11 Q1113.01 1320.98 1111.18 1317.44 Q1109.37 1313.87 1105.74 1313.87 M1105.74 1310.17 Q1111.55 1310.17 1114.6 1314.78 Q1117.68 1319.36 1117.68 1328.11 Q1117.68 1336.84 1114.6 1341.44 Q1111.55 1346.03 1105.74 1346.03 Q1099.93 1346.03 1096.85 1341.44 Q1093.79 1336.84 1093.79 1328.11 Q1093.79 1319.36 1096.85 1314.78 Q1099.93 1310.17 1105.74 1310.17 Z" fill="#000000" fill-rule="nonzero" fill-opacity="1"></path><path clip-path="url(#clip930)" d="M1494.69 1344.64 L1494.69 1340.38 Q1496.45 1341.21 1498.26 1341.65 Q1500.06 1342.09 1501.8 1342.09 Q1506.43 1342.09 1508.86 1338.99 Q1511.31 1335.86 1511.66 1329.52 Q1510.32 1331.51 1508.26 1332.58 Q1506.2 1333.64 1503.7 1333.64 Q1498.51 1333.64 1495.48 1330.52 Q1492.47 1327.37 1492.47 1321.93 Q1492.47 1316.6 1495.62 1313.39 Q1498.77 1310.17 1504 1310.17 Q1509.99 1310.17 1513.14 1314.78 Q1516.31 1319.36 1516.31 1328.11 Q1516.31 1336.28 1512.42 1341.16 Q1508.56 1346.03 1502.01 1346.03 Q1500.25 1346.03 1498.44 1345.68 Q1496.64 1345.33 1494.69 1344.64 M1504 1329.98 Q1507.15 1329.98 1508.98 1327.83 Q1510.83 1325.68 1510.83 1321.93 Q1510.83 1318.2 1508.98 1316.05 Q1507.15 1313.87 1504 1313.87 Q1500.85 1313.87 1499 1316.05 Q1497.17 1318.2 1497.17 1321.93 Q1497.17 1325.68 1499 1327.83 Q1500.85 1329.98 1504 1329.98 Z" fill="#000000" fill-rule="nonzero" fill-opacity="1"></path><path clip-path="url(#clip930)" d="M1534.72 1313.87 Q1531.1 1313.87 1529.28 1317.44 Q1527.47 1320.98 1527.47 1328.11 Q1527.47 1335.22 1529.28 1338.78 Q1531.1 1342.32 1534.72 1342.32 Q1538.35 1342.32 1540.16 1338.78 Q1541.98 1335.22 1541.98 1328.11 Q1541.98 1320.98 1540.16 1317.44 Q1538.35 1313.87 1534.72 1313.87 M1534.72 1310.17 Q1540.53 1310.17 1543.58 1314.78 Q1546.66 1319.36 1546.66 1328.11 Q1546.66 1336.84 1543.58 1341.44 Q1540.53 1346.03 1534.72 1346.03 Q1528.91 1346.03 1525.83 1341.44 Q1522.77 1336.84 1522.77 1328.11 Q1522.77 1319.36 1525.83 1314.78 Q1528.91 1310.17 1534.72 1310.17 Z" fill="#000000" fill-rule="nonzero" fill-opacity="1"></path><path clip-path="url(#clip930)" d="M1907.99 1341.42 L1915.63 1341.42 L1915.63 1315.05 L1907.32 1316.72 L1907.32 1312.46 L1915.58 1310.79 L1920.26 1310.79 L1920.26 1341.42 L1927.9 1341.42 L1927.9 1345.35 L1907.99 1345.35 L1907.99 1341.42 Z" fill="#000000" fill-rule="nonzero" fill-opacity="1"></path><path clip-path="url(#clip930)" d="M1941.37 1341.42 L1957.69 1341.42 L1957.69 1345.35 L1935.74 1345.35 L1935.74 1341.42 Q1938.41 1338.66 1942.99 1334.04 Q1947.59 1329.38 1948.78 1328.04 Q1951.02 1325.52 1951.9 1323.78 Q1952.8 1322.02 1952.8 1320.33 Q1952.8 1317.58 1950.86 1315.84 Q1948.94 1314.1 1945.84 1314.1 Q1943.64 1314.1 1941.18 1314.87 Q1938.75 1315.63 1935.97 1317.18 L1935.97 1312.46 Q1938.8 1311.33 1941.25 1310.75 Q1943.71 1310.17 1945.74 1310.17 Q1951.11 1310.17 1954.31 1312.85 Q1957.5 1315.54 1957.5 1320.03 Q1957.5 1322.16 1956.69 1324.08 Q1955.91 1325.98 1953.8 1328.57 Q1953.22 1329.24 1950.12 1332.46 Q1947.02 1335.66 1941.37 1341.42 Z" fill="#000000" fill-rule="nonzero" fill-opacity="1"></path><path clip-path="url(#clip930)" d="M1977.5 1313.87 Q1973.89 1313.87 1972.06 1317.44 Q1970.26 1320.98 1970.26 1328.11 Q1970.26 1335.22 1972.06 1338.78 Q1973.89 1342.32 1977.5 1342.32 Q1981.14 1342.32 1982.94 1338.78 Q1984.77 1335.22 1984.77 1328.11 Q1984.77 1320.98 1982.94 1317.44 Q1981.14 1313.87 1977.5 1313.87 M1977.5 1310.17 Q1983.31 1310.17 1986.37 1314.78 Q1989.45 1319.36 1989.45 1328.11 Q1989.45 1336.84 1986.37 1341.44 Q1983.31 1346.03 1977.5 1346.03 Q1971.69 1346.03 1968.61 1341.44 Q1965.56 1336.84 1965.56 1328.11 Q1965.56 1319.36 1968.61 1314.78 Q1971.69 1310.17 1977.5 1310.17 Z" fill="#000000" fill-rule="nonzero" fill-opacity="1"></path><polyline clip-path="url(#clip932)" style="stroke:#000000; stroke-linecap:round; stroke-linejoin:round; stroke-width:2; stroke-opacity:0.1; fill:none" points="186.089,1124.15 2352.76,1124.15 "></polyline>
<polyline clip-path="url(#clip932)" style="stroke:#000000; stroke-linecap:round; stroke-linejoin:round; stroke-width:2; stroke-opacity:0.1; fill:none" points="186.089,908.29 2352.76,908.29 "></polyline>
<polyline clip-path="url(#clip932)" style="stroke:#000000; stroke-linecap:round; stroke-linejoin:round; stroke-width:2; stroke-opacity:0.1; fill:none" points="186.089,692.429 2352.76,692.429 "></polyline>
<polyline clip-path="url(#clip932)" style="stroke:#000000; stroke-linecap:round; stroke-linejoin:round; stroke-width:2; stroke-opacity:0.1; fill:none" points="186.089,476.568 2352.76,476.568 "></polyline>
<polyline clip-path="url(#clip932)" style="stroke:#000000; stroke-linecap:round; stroke-linejoin:round; stroke-width:2; stroke-opacity:0.1; fill:none" points="186.089,260.706 2352.76,260.706 "></polyline>
<polyline clip-path="url(#clip930)" style="stroke:#000000; stroke-linecap:round; stroke-linejoin:round; stroke-width:4; stroke-opacity:1; fill:none" points="186.089,1282.95 186.089,47.2441 "></polyline>
<polyline clip-path="url(#clip930)" style="stroke:#000000; stroke-linecap:round; stroke-linejoin:round; stroke-width:4; stroke-opacity:1; fill:none" points="186.089,1124.15 204.986,1124.15 "></polyline>
<polyline clip-path="url(#clip930)" style="stroke:#000000; stroke-linecap:round; stroke-linejoin:round; stroke-width:4; stroke-opacity:1; fill:none" points="186.089,908.29 204.986,908.29 "></polyline>
<polyline clip-path="url(#clip930)" style="stroke:#000000; stroke-linecap:round; stroke-linejoin:round; stroke-width:4; stroke-opacity:1; fill:none" points="186.089,692.429 204.986,692.429 "></polyline>
<polyline clip-path="url(#clip930)" style="stroke:#000000; stroke-linecap:round; stroke-linejoin:round; stroke-width:4; stroke-opacity:1; fill:none" points="186.089,476.568 204.986,476.568 "></polyline>
<polyline clip-path="url(#clip930)" style="stroke:#000000; stroke-linecap:round; stroke-linejoin:round; stroke-width:4; stroke-opacity:1; fill:none" points="186.089,260.706 204.986,260.706 "></polyline>
<path clip-path="url(#clip930)" d="M52.7977 1106.87 L71.1541 1106.87 L71.1541 1110.81 L57.0801 1110.81 L57.0801 1119.28 Q58.0986 1118.93 59.1171 1118.77 Q60.1356 1118.58 61.1541 1118.58 Q66.9411 1118.58 70.3207 1121.76 Q73.7003 1124.93 73.7003 1130.34 Q73.7003 1135.92 70.2281 1139.02 Q66.7559 1142.1 60.4365 1142.1 Q58.2606 1142.1 55.9921 1141.73 Q53.7467 1141.36 51.3393 1140.62 L51.3393 1135.92 Q53.4227 1137.06 55.6449 1137.61 Q57.8671 1138.17 60.3439 1138.17 Q64.3485 1138.17 66.6865 1136.06 Q69.0244 1133.96 69.0244 1130.34 Q69.0244 1126.73 66.6865 1124.63 Q64.3485 1122.52 60.3439 1122.52 Q58.4689 1122.52 56.5939 1122.94 Q54.7421 1123.35 52.7977 1124.23 L52.7977 1106.87 Z" fill="#000000" fill-rule="nonzero" fill-opacity="1"></path><path clip-path="url(#clip930)" d="M82.9133 1135.55 L87.7975 1135.55 L87.7975 1141.43 L82.9133 1141.43 L82.9133 1135.55 Z" fill="#000000" fill-rule="nonzero" fill-opacity="1"></path><path clip-path="url(#clip930)" d="M107.983 1109.95 Q104.371 1109.95 102.543 1113.52 Q100.737 1117.06 100.737 1124.19 Q100.737 1131.29 102.543 1134.86 Q104.371 1138.4 107.983 1138.4 Q111.617 1138.4 113.422 1134.86 Q115.251 1131.29 115.251 1124.19 Q115.251 1117.06 113.422 1113.52 Q111.617 1109.95 107.983 1109.95 M107.983 1106.25 Q113.793 1106.25 116.848 1110.85 Q119.927 1115.44 119.927 1124.19 Q119.927 1132.91 116.848 1137.52 Q113.793 1142.1 107.983 1142.1 Q102.172 1142.1 99.0937 1137.52 Q96.0382 1132.91 96.0382 1124.19 Q96.0382 1115.44 99.0937 1110.85 Q102.172 1106.25 107.983 1106.25 Z" fill="#000000" fill-rule="nonzero" fill-opacity="1"></path><path clip-path="url(#clip930)" d="M138.144 1109.95 Q134.533 1109.95 132.705 1113.52 Q130.899 1117.06 130.899 1124.19 Q130.899 1131.29 132.705 1134.86 Q134.533 1138.4 138.144 1138.4 Q141.779 1138.4 143.584 1134.86 Q145.413 1131.29 145.413 1124.19 Q145.413 1117.06 143.584 1113.52 Q141.779 1109.95 138.144 1109.95 M138.144 1106.25 Q143.955 1106.25 147.01 1110.85 Q150.089 1115.44 150.089 1124.19 Q150.089 1132.91 147.01 1137.52 Q143.955 1142.1 138.144 1142.1 Q132.334 1142.1 129.256 1137.52 Q126.2 1132.91 126.2 1124.19 Q126.2 1115.44 129.256 1110.85 Q132.334 1106.25 138.144 1106.25 Z" fill="#000000" fill-rule="nonzero" fill-opacity="1"></path><path clip-path="url(#clip930)" d="M53.793 891.01 L72.1494 891.01 L72.1494 894.946 L58.0754 894.946 L58.0754 903.418 Q59.0939 903.071 60.1124 902.909 Q61.131 902.723 62.1495 902.723 Q67.9365 902.723 71.3161 905.895 Q74.6957 909.066 74.6957 914.483 Q74.6957 920.061 71.2235 923.163 Q67.7513 926.242 61.4319 926.242 Q59.256 926.242 56.9875 925.871 Q54.7421 925.501 52.3347 924.76 L52.3347 920.061 Q54.418 921.195 56.6402 921.751 Q58.8625 922.307 61.3393 922.307 Q65.3439 922.307 67.6819 920.2 Q70.0198 918.094 70.0198 914.483 Q70.0198 910.871 67.6819 908.765 Q65.3439 906.658 61.3393 906.658 Q59.4643 906.658 57.5893 907.075 Q55.7375 907.492 53.793 908.371 L53.793 891.01 Z" fill="#000000" fill-rule="nonzero" fill-opacity="1"></path><path clip-path="url(#clip930)" d="M83.9086 919.691 L88.7928 919.691 L88.7928 925.57 L83.9086 925.57 L83.9086 919.691 Z" fill="#000000" fill-rule="nonzero" fill-opacity="1"></path><path clip-path="url(#clip930)" d="M103.006 921.635 L119.325 921.635 L119.325 925.57 L97.3808 925.57 L97.3808 921.635 Q100.043 918.881 104.626 914.251 Q109.233 909.598 110.413 908.256 Q112.658 905.733 113.538 903.996 Q114.441 902.237 114.441 900.547 Q114.441 897.793 112.496 896.057 Q110.575 894.321 107.473 894.321 Q105.274 894.321 102.821 895.084 Q100.39 895.848 97.6122 897.399 L97.6122 892.677 Q100.436 891.543 102.89 890.964 Q105.344 890.385 107.381 890.385 Q112.751 890.385 115.945 893.071 Q119.14 895.756 119.14 900.246 Q119.14 902.376 118.33 904.297 Q117.543 906.196 115.436 908.788 Q114.858 909.459 111.756 912.677 Q108.654 915.871 103.006 921.635 Z" fill="#000000" fill-rule="nonzero" fill-opacity="1"></path><path clip-path="url(#clip930)" d="M129.186 891.01 L147.543 891.01 L147.543 894.946 L133.469 894.946 L133.469 903.418 Q134.487 903.071 135.506 902.909 Q136.524 902.723 137.543 902.723 Q143.33 902.723 146.709 905.895 Q150.089 909.066 150.089 914.483 Q150.089 920.061 146.617 923.163 Q143.144 926.242 136.825 926.242 Q134.649 926.242 132.381 925.871 Q130.135 925.501 127.728 924.76 L127.728 920.061 Q129.811 921.195 132.033 921.751 Q134.256 922.307 136.732 922.307 Q140.737 922.307 143.075 920.2 Q145.413 918.094 145.413 914.483 Q145.413 910.871 143.075 908.765 Q140.737 906.658 136.732 906.658 Q134.857 906.658 132.982 907.075 Q131.131 907.492 129.186 908.371 L129.186 891.01 Z" fill="#000000" fill-rule="nonzero" fill-opacity="1"></path><path clip-path="url(#clip930)" d="M52.7977 675.149 L71.1541 675.149 L71.1541 679.084 L57.0801 679.084 L57.0801 687.556 Q58.0986 687.209 59.1171 687.047 Q60.1356 686.862 61.1541 686.862 Q66.9411 686.862 70.3207 690.033 Q73.7003 693.204 73.7003 698.621 Q73.7003 704.2 70.2281 707.302 Q66.7559 710.38 60.4365 710.38 Q58.2606 710.38 55.9921 710.01 Q53.7467 709.64 51.3393 708.899 L51.3393 704.2 Q53.4227 705.334 55.6449 705.89 Q57.8671 706.445 60.3439 706.445 Q64.3485 706.445 66.6865 704.339 Q69.0244 702.232 69.0244 698.621 Q69.0244 695.01 66.6865 692.904 Q64.3485 690.797 60.3439 690.797 Q58.4689 690.797 56.5939 691.214 Q54.7421 691.63 52.7977 692.51 L52.7977 675.149 Z" fill="#000000" fill-rule="nonzero" fill-opacity="1"></path><path clip-path="url(#clip930)" d="M82.9133 703.829 L87.7975 703.829 L87.7975 709.709 L82.9133 709.709 L82.9133 703.829 Z" fill="#000000" fill-rule="nonzero" fill-opacity="1"></path><path clip-path="url(#clip930)" d="M98.0289 675.149 L116.385 675.149 L116.385 679.084 L102.311 679.084 L102.311 687.556 Q103.33 687.209 104.348 687.047 Q105.367 686.862 106.385 686.862 Q112.172 686.862 115.552 690.033 Q118.932 693.204 118.932 698.621 Q118.932 704.2 115.459 707.302 Q111.987 710.38 105.668 710.38 Q103.492 710.38 101.223 710.01 Q98.978 709.64 96.5706 708.899 L96.5706 704.2 Q98.6539 705.334 100.876 705.89 Q103.098 706.445 105.575 706.445 Q109.58 706.445 111.918 704.339 Q114.256 702.232 114.256 698.621 Q114.256 695.01 111.918 692.904 Q109.58 690.797 105.575 690.797 Q103.7 690.797 101.825 691.214 Q99.9733 691.63 98.0289 692.51 L98.0289 675.149 Z" fill="#000000" fill-rule="nonzero" fill-opacity="1"></path><path clip-path="url(#clip930)" d="M138.144 678.228 Q134.533 678.228 132.705 681.792 Q130.899 685.334 130.899 692.464 Q130.899 699.57 132.705 703.135 Q134.533 706.677 138.144 706.677 Q141.779 706.677 143.584 703.135 Q145.413 699.57 145.413 692.464 Q145.413 685.334 143.584 681.792 Q141.779 678.228 138.144 678.228 M138.144 674.524 Q143.955 674.524 147.01 679.13 Q150.089 683.714 150.089 692.464 Q150.089 701.191 147.01 705.797 Q143.955 710.38 138.144 710.38 Q132.334 710.38 129.256 705.797 Q126.2 701.191 126.2 692.464 Q126.2 683.714 129.256 679.13 Q132.334 674.524 138.144 674.524 Z" fill="#000000" fill-rule="nonzero" fill-opacity="1"></path><path clip-path="url(#clip930)" d="M53.793 459.288 L72.1494 459.288 L72.1494 463.223 L58.0754 463.223 L58.0754 471.695 Q59.0939 471.348 60.1124 471.186 Q61.131 471 62.1495 471 Q67.9365 471 71.3161 474.172 Q74.6957 477.343 74.6957 482.76 Q74.6957 488.338 71.2235 491.44 Q67.7513 494.519 61.4319 494.519 Q59.256 494.519 56.9875 494.148 Q54.7421 493.778 52.3347 493.037 L52.3347 488.338 Q54.418 489.473 56.6402 490.028 Q58.8625 490.584 61.3393 490.584 Q65.3439 490.584 67.6819 488.477 Q70.0198 486.371 70.0198 482.76 Q70.0198 479.149 67.6819 477.042 Q65.3439 474.936 61.3393 474.936 Q59.4643 474.936 57.5893 475.352 Q55.7375 475.769 53.793 476.649 L53.793 459.288 Z" fill="#000000" fill-rule="nonzero" fill-opacity="1"></path><path clip-path="url(#clip930)" d="M83.9086 487.968 L88.7928 487.968 L88.7928 493.848 L83.9086 493.848 L83.9086 487.968 Z" fill="#000000" fill-rule="nonzero" fill-opacity="1"></path><path clip-path="url(#clip930)" d="M97.7974 459.288 L120.02 459.288 L120.02 461.278 L107.473 493.848 L102.589 493.848 L114.395 463.223 L97.7974 463.223 L97.7974 459.288 Z" fill="#000000" fill-rule="nonzero" fill-opacity="1"></path><path clip-path="url(#clip930)" d="M129.186 459.288 L147.543 459.288 L147.543 463.223 L133.469 463.223 L133.469 471.695 Q134.487 471.348 135.506 471.186 Q136.524 471 137.543 471 Q143.33 471 146.709 474.172 Q150.089 477.343 150.089 482.76 Q150.089 488.338 146.617 491.44 Q143.144 494.519 136.825 494.519 Q134.649 494.519 132.381 494.148 Q130.135 493.778 127.728 493.037 L127.728 488.338 Q129.811 489.473 132.033 490.028 Q134.256 490.584 136.732 490.584 Q140.737 490.584 143.075 488.477 Q145.413 486.371 145.413 482.76 Q145.413 479.149 143.075 477.042 Q140.737 474.936 136.732 474.936 Q134.857 474.936 132.982 475.352 Q131.131 475.769 129.186 476.649 L129.186 459.288 Z" fill="#000000" fill-rule="nonzero" fill-opacity="1"></path><path clip-path="url(#clip930)" d="M63.33 258.843 Q60.1819 258.843 58.33 260.995 Q56.5014 263.148 56.5014 266.898 Q56.5014 270.625 58.33 272.801 Q60.1819 274.954 63.33 274.954 Q66.4782 274.954 68.3068 272.801 Q70.1587 270.625 70.1587 266.898 Q70.1587 263.148 68.3068 260.995 Q66.4782 258.843 63.33 258.843 M72.6124 244.19 L72.6124 248.449 Q70.8531 247.616 69.0476 247.176 Q67.2652 246.736 65.5059 246.736 Q60.8763 246.736 58.4226 249.861 Q55.9921 252.986 55.6449 259.306 Q57.0106 257.292 59.0708 256.227 Q61.131 255.139 63.6078 255.139 Q68.8161 255.139 71.8253 258.31 Q74.8577 261.458 74.8577 266.898 Q74.8577 272.222 71.7096 275.44 Q68.5615 278.657 63.33 278.657 Q57.3347 278.657 54.1634 274.074 Q50.9921 269.468 50.9921 260.741 Q50.9921 252.546 54.881 247.685 Q58.7699 242.801 65.3208 242.801 Q67.08 242.801 68.8624 243.148 Q70.6679 243.496 72.6124 244.19 Z" fill="#000000" fill-rule="nonzero" fill-opacity="1"></path><path clip-path="url(#clip930)" d="M82.9133 272.107 L87.7975 272.107 L87.7975 277.986 L82.9133 277.986 L82.9133 272.107 Z" fill="#000000" fill-rule="nonzero" fill-opacity="1"></path><path clip-path="url(#clip930)" d="M107.983 246.505 Q104.371 246.505 102.543 250.07 Q100.737 253.611 100.737 260.741 Q100.737 267.847 102.543 271.412 Q104.371 274.954 107.983 274.954 Q111.617 274.954 113.422 271.412 Q115.251 267.847 115.251 260.741 Q115.251 253.611 113.422 250.07 Q111.617 246.505 107.983 246.505 M107.983 242.801 Q113.793 242.801 116.848 247.408 Q119.927 251.991 119.927 260.741 Q119.927 269.468 116.848 274.074 Q113.793 278.657 107.983 278.657 Q102.172 278.657 99.0937 274.074 Q96.0382 269.468 96.0382 260.741 Q96.0382 251.991 99.0937 247.408 Q102.172 242.801 107.983 242.801 Z" fill="#000000" fill-rule="nonzero" fill-opacity="1"></path><path clip-path="url(#clip930)" d="M138.144 246.505 Q134.533 246.505 132.705 250.07 Q130.899 253.611 130.899 260.741 Q130.899 267.847 132.705 271.412 Q134.533 274.954 138.144 274.954 Q141.779 274.954 143.584 271.412 Q145.413 267.847 145.413 260.741 Q145.413 253.611 143.584 250.07 Q141.779 246.505 138.144 246.505 M138.144 242.801 Q143.955 242.801 147.01 247.408 Q150.089 251.991 150.089 260.741 Q150.089 269.468 147.01 274.074 Q143.955 278.657 138.144 278.657 Q132.334 278.657 129.256 274.074 Q126.2 269.468 126.2 260.741 Q126.2 251.991 129.256 247.408 Q132.334 242.801 138.144 242.801 Z" fill="#000000" fill-rule="nonzero" fill-opacity="1"></path><polyline clip-path="url(#clip932)" style="stroke:#000000; stroke-linecap:round; stroke-linejoin:round; stroke-width:8; stroke-opacity:1; fill:none" points="247.41,1247.98 261.703,1237.61 275.997,1237.21 290.291,1236.73 304.585,1236.15 318.879,1235.47 333.173,1234.68 347.467,1233.77 361.761,1232.75 376.055,1231.62 390.348,1226.47 404.642,1218.1 418.936,1213.16 433.23,1180.95 447.524,1179.27 461.818,1177.47 476.112,1175.56 490.406,1173.54 504.7,1171.41 518.993,1156.2 533.287,1130.11 547.581,1127.66 561.875,1111.45 576.169,1076.28 590.463,1047.7 604.757,1022.13 619.051,1011.52 633.344,1008.57 647.638,1005.54 661.932,1002.44 676.226,999.255 690.52,995.016 704.814,979.18 719.108,963.881 733.402,943.491 747.696,927.713 761.989,914.448 776.283,910.439 790.577,906.697 804.871,902.921 819.165,899.108 833.459,885.062 847.753,881.174 862.047,866.258 876.341,853.599 890.634,830.752 904.928,810.109 919.222,797.427 933.516,790.706 947.81,786.737 962.104,782.769 976.398,778.801 990.692,774.833 1004.99,770.864 1019.28,766.896 1033.57,762.924 1047.87,758.947 1062.16,754.964 1076.45,750.973 1090.75,746.969 1105.04,742.953 1119.34,738.874 1133.63,729.792 1147.92,721.901 1162.22,710.945 1176.51,704.569 1190.81,695.799 1205.1,690.867 1219.39,681.642 1233.69,668.7 1247.98,654.801 1262.28,641.571 1276.57,625.707 1290.86,617.341 1305.16,606.293 1319.45,588.582 1333.74,575.751 1348.04,560.687 1362.33,546.209 1376.63,540.596 1390.92,527.719 1405.21,517.982 1419.51,507.972 1433.8,490.711 1448.1,480.586 1462.39,472.354 1476.68,463.771 1490.98,451.303 1505.27,438.648 1519.57,426.196 1533.86,422.154 1548.15,418.112 1562.45,414.07 1576.74,410.028 1591.03,404.357 1605.33,397.709 1619.62,390.979 1633.92,386.917 1648.21,371.781 1662.5,360.047 1676.8,349.382 1691.09,343.229 1705.39,339.187 1719.68,335.145 1733.97,331.103 1748.27,327.061 1762.56,323.019 1776.86,318.977 1791.15,314.936 1805.44,310.894 1819.74,306.852 1834.03,302.81 1848.32,298.768 1862.62,294.726 1876.91,290.684 1891.21,286.642 1905.5,282.6 1919.79,278.558 1934.09,274.516 1948.38,270.474 1962.68,266.432 1976.97,262.39 1991.26,255.489 2005.56,241.836 2019.85,213.568 2034.15,202.091 2048.44,183.367 2062.73,177.546 2077.03,173.504 2091.32,169.463 2105.61,165.421 2119.91,161.379 2134.2,157.337 2148.5,153.295 2162.79,149.253 2177.08,123.804 2191.38,110.511 2205.67,106.469 2219.97,102.427 2234.26,98.3848 2248.55,94.3428 2262.85,90.3009 2277.14,86.259 2291.44,82.217 "></polyline>
<path clip-path="url(#clip930)" d="M951.565 1486.45 L1587.28 1486.45 L1587.28 1382.77 L951.565 1382.77  Z" fill="#ffffff" fill-rule="evenodd" fill-opacity="1"></path>
<polyline clip-path="url(#clip930)" style="stroke:#000000; stroke-linecap:round; stroke-linejoin:round; stroke-width:4; stroke-opacity:1; fill:none" points="951.565,1486.45 1587.28,1486.45 1587.28,1382.77 951.565,1382.77 951.565,1486.45 "></polyline>
<polyline clip-path="url(#clip930)" style="stroke:#000000; stroke-linecap:round; stroke-linejoin:round; stroke-width:8; stroke-opacity:1; fill:none" points="975.639,1434.61 1120.08,1434.61 "></polyline>
<path clip-path="url(#clip930)" d="M1144.16 1417.33 L1173.39 1417.33 L1173.39 1421.26 L1161.12 1421.26 L1161.12 1451.89 L1156.43 1451.89 L1156.43 1421.26 L1144.16 1421.26 L1144.16 1417.33 Z" fill="#000000" fill-rule="nonzero" fill-opacity="1"></path><path clip-path="url(#clip930)" d="M1185.78 1429.94 Q1185.06 1429.53 1184.2 1429.34 Q1183.37 1429.13 1182.35 1429.13 Q1178.74 1429.13 1176.8 1431.49 Q1174.87 1433.83 1174.87 1438.23 L1174.87 1451.89 L1170.59 1451.89 L1170.59 1425.96 L1174.87 1425.96 L1174.87 1429.99 Q1176.22 1427.63 1178.37 1426.49 Q1180.52 1425.34 1183.6 1425.34 Q1184.04 1425.34 1184.57 1425.41 Q1185.11 1425.45 1185.75 1425.57 L1185.78 1429.94 Z" fill="#000000" fill-rule="nonzero" fill-opacity="1"></path><path clip-path="url(#clip930)" d="M1211.38 1437.86 L1211.38 1439.94 L1191.8 1439.94 Q1192.07 1444.34 1194.43 1446.66 Q1196.82 1448.95 1201.06 1448.95 Q1203.51 1448.95 1205.8 1448.35 Q1208.12 1447.74 1210.38 1446.54 L1210.38 1450.57 Q1208.09 1451.54 1205.68 1452.05 Q1203.28 1452.56 1200.8 1452.56 Q1194.6 1452.56 1190.96 1448.95 Q1187.35 1445.34 1187.35 1439.18 Q1187.35 1432.81 1190.78 1429.09 Q1194.23 1425.34 1200.06 1425.34 Q1205.29 1425.34 1208.32 1428.72 Q1211.38 1432.07 1211.38 1437.86 M1207.12 1436.61 Q1207.07 1433.11 1205.15 1431.03 Q1203.25 1428.95 1200.11 1428.95 Q1196.54 1428.95 1194.39 1430.96 Q1192.26 1432.98 1191.93 1436.63 L1207.12 1436.61 Z" fill="#000000" fill-rule="nonzero" fill-opacity="1"></path><path clip-path="url(#clip930)" d="M1239.92 1436.24 L1239.92 1451.89 L1235.66 1451.89 L1235.66 1436.38 Q1235.66 1432.7 1234.23 1430.87 Q1232.79 1429.04 1229.92 1429.04 Q1226.47 1429.04 1224.48 1431.24 Q1222.49 1433.44 1222.49 1437.24 L1222.49 1451.89 L1218.21 1451.89 L1218.21 1425.96 L1222.49 1425.96 L1222.49 1429.99 Q1224.02 1427.65 1226.08 1426.49 Q1228.16 1425.34 1230.87 1425.34 Q1235.34 1425.34 1237.63 1428.11 Q1239.92 1430.87 1239.92 1436.24 Z" fill="#000000" fill-rule="nonzero" fill-opacity="1"></path><path clip-path="url(#clip930)" d="M1265.48 1429.9 L1265.48 1415.87 L1269.74 1415.87 L1269.74 1451.89 L1265.48 1451.89 L1265.48 1448 Q1264.13 1450.31 1262.07 1451.45 Q1260.04 1452.56 1257.17 1452.56 Q1252.47 1452.56 1249.5 1448.81 Q1246.56 1445.06 1246.56 1438.95 Q1246.56 1432.84 1249.5 1429.09 Q1252.47 1425.34 1257.17 1425.34 Q1260.04 1425.34 1262.07 1426.47 Q1264.13 1427.58 1265.48 1429.9 M1250.96 1438.95 Q1250.96 1443.65 1252.88 1446.33 Q1254.83 1448.99 1258.21 1448.99 Q1261.59 1448.99 1263.53 1446.33 Q1265.48 1443.65 1265.48 1438.95 Q1265.48 1434.25 1263.53 1431.59 Q1261.59 1428.9 1258.21 1428.9 Q1254.83 1428.9 1252.88 1431.59 Q1250.96 1434.25 1250.96 1438.95 Z" fill="#000000" fill-rule="nonzero" fill-opacity="1"></path><path clip-path="url(#clip930)" d="M1319.64 1419.99 L1319.64 1424.92 Q1317.28 1422.72 1314.6 1421.63 Q1311.93 1420.55 1308.92 1420.55 Q1303 1420.55 1299.85 1424.18 Q1296.7 1427.79 1296.7 1434.64 Q1296.7 1441.47 1299.85 1445.11 Q1303 1448.72 1308.92 1448.72 Q1311.93 1448.72 1314.6 1447.63 Q1317.28 1446.54 1319.64 1444.34 L1319.64 1449.23 Q1317.19 1450.89 1314.43 1451.73 Q1311.7 1452.56 1308.65 1452.56 Q1300.8 1452.56 1296.29 1447.77 Q1291.77 1442.95 1291.77 1434.64 Q1291.77 1426.31 1296.29 1421.52 Q1300.8 1416.7 1308.65 1416.7 Q1311.75 1416.7 1314.48 1417.54 Q1317.24 1418.35 1319.64 1419.99 Z" fill="#000000" fill-rule="nonzero" fill-opacity="1"></path><path clip-path="url(#clip930)" d="M1336.73 1428.95 Q1333.3 1428.95 1331.31 1431.63 Q1329.32 1434.3 1329.32 1438.95 Q1329.32 1443.6 1331.29 1446.29 Q1333.28 1448.95 1336.73 1448.95 Q1340.13 1448.95 1342.12 1446.26 Q1344.11 1443.58 1344.11 1438.95 Q1344.11 1434.34 1342.12 1431.66 Q1340.13 1428.95 1336.73 1428.95 M1336.73 1425.34 Q1342.28 1425.34 1345.45 1428.95 Q1348.62 1432.56 1348.62 1438.95 Q1348.62 1445.31 1345.45 1448.95 Q1342.28 1452.56 1336.73 1452.56 Q1331.15 1452.56 1327.98 1448.95 Q1324.83 1445.31 1324.83 1438.95 Q1324.83 1432.56 1327.98 1428.95 Q1331.15 1425.34 1336.73 1425.34 Z" fill="#000000" fill-rule="nonzero" fill-opacity="1"></path><path clip-path="url(#clip930)" d="M1375.87 1430.94 Q1377.47 1428.07 1379.69 1426.7 Q1381.91 1425.34 1384.92 1425.34 Q1388.97 1425.34 1391.17 1428.18 Q1393.37 1431.01 1393.37 1436.24 L1393.37 1451.89 L1389.09 1451.89 L1389.09 1436.38 Q1389.09 1432.65 1387.77 1430.85 Q1386.45 1429.04 1383.74 1429.04 Q1380.43 1429.04 1378.51 1431.24 Q1376.59 1433.44 1376.59 1437.24 L1376.59 1451.89 L1372.3 1451.89 L1372.3 1436.38 Q1372.3 1432.63 1370.98 1430.85 Q1369.67 1429.04 1366.91 1429.04 Q1363.65 1429.04 1361.73 1431.26 Q1359.8 1433.46 1359.8 1437.24 L1359.8 1451.89 L1355.52 1451.89 L1355.52 1425.96 L1359.8 1425.96 L1359.8 1429.99 Q1361.26 1427.61 1363.3 1426.47 Q1365.34 1425.34 1368.14 1425.34 Q1370.96 1425.34 1372.93 1426.77 Q1374.92 1428.21 1375.87 1430.94 Z" fill="#000000" fill-rule="nonzero" fill-opacity="1"></path><path clip-path="url(#clip930)" d="M1405.98 1448 L1405.98 1461.75 L1401.7 1461.75 L1401.7 1425.96 L1405.98 1425.96 L1405.98 1429.9 Q1407.33 1427.58 1409.36 1426.47 Q1411.42 1425.34 1414.27 1425.34 Q1418.99 1425.34 1421.93 1429.09 Q1424.9 1432.84 1424.9 1438.95 Q1424.9 1445.06 1421.93 1448.81 Q1418.99 1452.56 1414.27 1452.56 Q1411.42 1452.56 1409.36 1451.45 Q1407.33 1450.31 1405.98 1448 M1420.48 1438.95 Q1420.48 1434.25 1418.53 1431.59 Q1416.61 1428.9 1413.23 1428.9 Q1409.85 1428.9 1407.91 1431.59 Q1405.98 1434.25 1405.98 1438.95 Q1405.98 1443.65 1407.91 1446.33 Q1409.85 1448.99 1413.23 1448.99 Q1416.61 1448.99 1418.53 1446.33 Q1420.48 1443.65 1420.48 1438.95 Z" fill="#000000" fill-rule="nonzero" fill-opacity="1"></path><path clip-path="url(#clip930)" d="M1442 1428.95 Q1438.58 1428.95 1436.59 1431.63 Q1434.6 1434.3 1434.6 1438.95 Q1434.6 1443.6 1436.56 1446.29 Q1438.55 1448.95 1442 1448.95 Q1445.41 1448.95 1447.4 1446.26 Q1449.39 1443.58 1449.39 1438.95 Q1449.39 1434.34 1447.4 1431.66 Q1445.41 1428.95 1442 1428.95 M1442 1425.34 Q1447.56 1425.34 1450.73 1428.95 Q1453.9 1432.56 1453.9 1438.95 Q1453.9 1445.31 1450.73 1448.95 Q1447.56 1452.56 1442 1452.56 Q1436.42 1452.56 1433.25 1448.95 Q1430.1 1445.31 1430.1 1438.95 Q1430.1 1432.56 1433.25 1428.95 Q1436.42 1425.34 1442 1425.34 Z" fill="#000000" fill-rule="nonzero" fill-opacity="1"></path><path clip-path="url(#clip930)" d="M1482.51 1436.24 L1482.51 1451.89 L1478.25 1451.89 L1478.25 1436.38 Q1478.25 1432.7 1476.82 1430.87 Q1475.38 1429.04 1472.51 1429.04 Q1469.06 1429.04 1467.07 1431.24 Q1465.08 1433.44 1465.08 1437.24 L1465.08 1451.89 L1460.8 1451.89 L1460.8 1425.96 L1465.08 1425.96 L1465.08 1429.99 Q1466.61 1427.65 1468.67 1426.49 Q1470.75 1425.34 1473.46 1425.34 Q1477.93 1425.34 1480.22 1428.11 Q1482.51 1430.87 1482.51 1436.24 Z" fill="#000000" fill-rule="nonzero" fill-opacity="1"></path><path clip-path="url(#clip930)" d="M1513.18 1437.86 L1513.18 1439.94 L1493.6 1439.94 Q1493.88 1444.34 1496.24 1446.66 Q1498.62 1448.95 1502.86 1448.95 Q1505.31 1448.95 1507.6 1448.35 Q1509.92 1447.74 1512.19 1446.54 L1512.19 1450.57 Q1509.9 1451.54 1507.49 1452.05 Q1505.08 1452.56 1502.6 1452.56 Q1496.4 1452.56 1492.77 1448.95 Q1489.16 1445.34 1489.16 1439.18 Q1489.16 1432.81 1492.58 1429.09 Q1496.03 1425.34 1501.86 1425.34 Q1507.1 1425.34 1510.13 1428.72 Q1513.18 1432.07 1513.18 1437.86 M1508.92 1436.61 Q1508.88 1433.11 1506.96 1431.03 Q1505.06 1428.95 1501.91 1428.95 Q1498.35 1428.95 1496.19 1430.96 Q1494.06 1432.98 1493.74 1436.63 L1508.92 1436.61 Z" fill="#000000" fill-rule="nonzero" fill-opacity="1"></path><path clip-path="url(#clip930)" d="M1541.72 1436.24 L1541.72 1451.89 L1537.47 1451.89 L1537.47 1436.38 Q1537.47 1432.7 1536.03 1430.87 Q1534.6 1429.04 1531.72 1429.04 Q1528.28 1429.04 1526.28 1431.24 Q1524.29 1433.44 1524.29 1437.24 L1524.29 1451.89 L1520.01 1451.89 L1520.01 1425.96 L1524.29 1425.96 L1524.29 1429.99 Q1525.82 1427.65 1527.88 1426.49 Q1529.97 1425.34 1532.67 1425.34 Q1537.14 1425.34 1539.43 1428.11 Q1541.72 1430.87 1541.72 1436.24 Z" fill="#000000" fill-rule="nonzero" fill-opacity="1"></path><path clip-path="url(#clip930)" d="M1554.43 1418.6 L1554.43 1425.96 L1563.21 1425.96 L1563.21 1429.27 L1554.43 1429.27 L1554.43 1443.35 Q1554.43 1446.52 1555.29 1447.42 Q1556.17 1448.32 1558.83 1448.32 L1563.21 1448.32 L1563.21 1451.89 L1558.83 1451.89 Q1553.9 1451.89 1552.03 1450.06 Q1550.15 1448.21 1550.15 1443.35 L1550.15 1429.27 L1547.03 1429.27 L1547.03 1425.96 L1550.15 1425.96 L1550.15 1418.6 L1554.43 1418.6 Z" fill="#000000" fill-rule="nonzero" fill-opacity="1"></path></svg>