<svg xmlns="http://www.w3.org/2000/svg" xmlns:xlink="http://www.w3.org/1999/xlink" width="600" height="400" viewBox="0 0 2400 1600">
<defs>
  <clipPath id="clip410">
    <rect x="0" y="0" width="2400" height="1600"></rect>
  </clipPath>
</defs>
<path clip-path="url(#clip410)" d="M0 1600 L2400 1600 L2400 8.88178e-14 L0 8.88178e-14  Z" fill="#ffffff" fill-rule="evenodd" fill-opacity="1"></path>
<defs>
  <clipPath id="clip411">
    <rect x="480" y="0" width="1681" height="1600"></rect>
  </clipPath>
</defs>
<path clip-path="url(#clip410)" d="M138.959 1231.11 L2352.76 1231.11 L2352.76 47.2441 L138.959 47.2441  Z" fill="#ffffff" fill-rule="evenodd" fill-opacity="1"></path>
<defs>
  <clipPath id="clip412">
    <rect x="138" y="47" width="2215" height="1185"></rect>
  </clipPath>
</defs>
<polyline clip-path="url(#clip412)" style="stroke:#000000; stroke-linecap:round; stroke-linejoin:round; stroke-width:2; stroke-opacity:0.1; fill:none" points="187.009,1231.11 187.009,47.2441 "></polyline>
<polyline clip-path="url(#clip412)" style="stroke:#000000; stroke-linecap:round; stroke-linejoin:round; stroke-width:2; stroke-opacity:0.1; fill:none" points="625.153,1231.11 625.153,47.2441 "></polyline>
<polyline clip-path="url(#clip412)" style="stroke:#000000; stroke-linecap:round; stroke-linejoin:round; stroke-width:2; stroke-opacity:0.1; fill:none" points="1063.3,1231.11 1063.3,47.2441 "></polyline>
<polyline clip-path="url(#clip412)" style="stroke:#000000; stroke-linecap:round; stroke-linejoin:round; stroke-width:2; stroke-opacity:0.1; fill:none" points="1501.44,1231.11 1501.44,47.2441 "></polyline>
<polyline clip-path="url(#clip412)" style="stroke:#000000; stroke-linecap:round; stroke-linejoin:round; stroke-width:2; stroke-opacity:0.1; fill:none" points="1939.59,1231.11 1939.59,47.2441 "></polyline>
<polyline clip-path="url(#clip410)" style="stroke:#000000; stroke-linecap:round; stroke-linejoin:round; stroke-width:4; stroke-opacity:1; fill:none" points="138.959,1231.11 2352.76,1231.11 "></polyline>
<polyline clip-path="url(#clip410)" style="stroke:#000000; stroke-linecap:round; stroke-linejoin:round; stroke-width:4; stroke-opacity:1; fill:none" points="187.009,1231.11 187.009,1215.57 "></polyline>
<polyline clip-path="url(#clip410)" style="stroke:#000000; stroke-linecap:round; stroke-linejoin:round; stroke-width:4; stroke-opacity:1; fill:none" points="625.153,1231.11 625.153,1215.57 "></polyline>
<polyline clip-path="url(#clip410)" style="stroke:#000000; stroke-linecap:round; stroke-linejoin:round; stroke-width:4; stroke-opacity:1; fill:none" points="1063.3,1231.11 1063.3,1215.57 "></polyline>
<polyline clip-path="url(#clip410)" style="stroke:#000000; stroke-linecap:round; stroke-linejoin:round; stroke-width:4; stroke-opacity:1; fill:none" points="1501.44,1231.11 1501.44,1215.57 "></polyline>
<polyline clip-path="url(#clip410)" style="stroke:#000000; stroke-linecap:round; stroke-linejoin:round; stroke-width:4; stroke-opacity:1; fill:none" points="1939.59,1231.11 1939.59,1215.57 "></polyline>
<path clip-path="url(#clip410)" d="M187.009 1262.03 Q183.398 1262.03 181.569 1265.6 Q179.764 1269.14 179.764 1276.27 Q179.764 1283.38 181.569 1286.94 Q183.398 1290.48 187.009 1290.48 Q190.643 1290.48 192.449 1286.94 Q194.278 1283.38 194.278 1276.27 Q194.278 1269.14 192.449 1265.6 Q190.643 1262.03 187.009 1262.03 M187.009 1258.33 Q192.819 1258.33 195.875 1262.94 Q198.954 1267.52 198.954 1276.27 Q198.954 1285 195.875 1289.6 Q192.819 1294.19 187.009 1294.19 Q181.199 1294.19 178.12 1289.6 Q175.065 1285 175.065 1276.27 Q175.065 1267.52 178.12 1262.94 Q181.199 1258.33 187.009 1258.33 Z" fill="#000000" fill-rule="nonzero" fill-opacity="1"></path><path clip-path="url(#clip410)" d="M613.996 1274.88 Q617.353 1275.6 619.228 1277.87 Q621.126 1280.13 621.126 1283.47 Q621.126 1288.58 617.607 1291.38 Q614.089 1294.19 607.607 1294.19 Q605.431 1294.19 603.117 1293.75 Q600.825 1293.33 598.371 1292.47 L598.371 1287.96 Q600.316 1289.09 602.63 1289.67 Q604.945 1290.25 607.468 1290.25 Q611.866 1290.25 614.158 1288.51 Q616.473 1286.78 616.473 1283.47 Q616.473 1280.41 614.32 1278.7 Q612.191 1276.96 608.371 1276.96 L604.343 1276.96 L604.343 1273.12 L608.556 1273.12 Q612.005 1273.12 613.834 1271.76 Q615.663 1270.37 615.663 1267.77 Q615.663 1265.11 613.765 1263.7 Q611.89 1262.26 608.371 1262.26 Q606.45 1262.26 604.251 1262.68 Q602.052 1263.1 599.413 1263.98 L599.413 1259.81 Q602.075 1259.07 604.39 1258.7 Q606.728 1258.33 608.788 1258.33 Q614.112 1258.33 617.214 1260.76 Q620.315 1263.17 620.315 1267.29 Q620.315 1270.16 618.672 1272.15 Q617.028 1274.12 613.996 1274.88 Z" fill="#000000" fill-rule="nonzero" fill-opacity="1"></path><path clip-path="url(#clip410)" d="M639.991 1262.03 Q636.38 1262.03 634.552 1265.6 Q632.746 1269.14 632.746 1276.27 Q632.746 1283.38 634.552 1286.94 Q636.38 1290.48 639.991 1290.48 Q643.626 1290.48 645.431 1286.94 Q647.26 1283.38 647.26 1276.27 Q647.26 1269.14 645.431 1265.6 Q643.626 1262.03 639.991 1262.03 M639.991 1258.33 Q645.801 1258.33 648.857 1262.94 Q651.936 1267.52 651.936 1276.27 Q651.936 1285 648.857 1289.6 Q645.801 1294.19 639.991 1294.19 Q634.181 1294.19 631.102 1289.6 Q628.047 1285 628.047 1276.27 Q628.047 1267.52 631.102 1262.94 Q634.181 1258.33 639.991 1258.33 Z" fill="#000000" fill-rule="nonzero" fill-opacity="1"></path><path clip-path="url(#clip410)" d="M1048.7 1274.37 Q1045.55 1274.37 1043.7 1276.52 Q1041.87 1278.68 1041.87 1282.43 Q1041.87 1286.15 1043.7 1288.33 Q1045.55 1290.48 1048.7 1290.48 Q1051.85 1290.48 1053.68 1288.33 Q1055.53 1286.15 1055.53 1282.43 Q1055.53 1278.68 1053.68 1276.52 Q1051.85 1274.37 1048.7 1274.37 M1057.99 1259.72 L1057.99 1263.98 Q1056.23 1263.14 1054.42 1262.7 Q1052.64 1262.26 1050.88 1262.26 Q1046.25 1262.26 1043.8 1265.39 Q1041.36 1268.51 1041.02 1274.83 Q1042.38 1272.82 1044.44 1271.76 Q1046.5 1270.67 1048.98 1270.67 Q1054.19 1270.67 1057.2 1273.84 Q1060.23 1276.99 1060.23 1282.43 Q1060.23 1287.75 1057.08 1290.97 Q1053.93 1294.19 1048.7 1294.19 Q1042.71 1294.19 1039.54 1289.6 Q1036.36 1285 1036.36 1276.27 Q1036.36 1268.07 1040.25 1263.21 Q1044.14 1258.33 1050.69 1258.33 Q1052.45 1258.33 1054.24 1258.68 Q1056.04 1259.02 1057.99 1259.72 Z" fill="#000000" fill-rule="nonzero" fill-opacity="1"></path><path clip-path="url(#clip410)" d="M1078.29 1262.03 Q1074.67 1262.03 1072.85 1265.6 Q1071.04 1269.14 1071.04 1276.27 Q1071.04 1283.38 1072.85 1286.94 Q1074.67 1290.48 1078.29 1290.48 Q1081.92 1290.48 1083.73 1286.94 Q1085.55 1283.38 1085.55 1276.27 Q1085.55 1269.14 1083.73 1265.6 Q1081.92 1262.03 1078.29 1262.03 M1078.29 1258.33 Q1084.1 1258.33 1087.15 1262.94 Q1090.23 1267.52 1090.23 1276.27 Q1090.23 1285 1087.15 1289.6 Q1084.1 1294.19 1078.29 1294.19 Q1072.48 1294.19 1069.4 1289.6 Q1066.34 1285 1066.34 1276.27 Q1066.34 1267.52 1069.4 1262.94 Q1072.48 1258.33 1078.29 1258.33 Z" fill="#000000" fill-rule="nonzero" fill-opacity="1"></path><path clip-path="url(#clip410)" d="M1476.57 1292.8 L1476.57 1288.54 Q1478.33 1289.37 1480.13 1289.81 Q1481.94 1290.25 1483.68 1290.25 Q1488.31 1290.25 1490.74 1287.15 Q1493.19 1284.02 1493.54 1277.68 Q1492.19 1279.67 1490.13 1280.74 Q1488.07 1281.8 1485.57 1281.8 Q1480.39 1281.8 1477.36 1278.68 Q1474.35 1275.53 1474.35 1270.09 Q1474.35 1264.76 1477.5 1261.55 Q1480.64 1258.33 1485.87 1258.33 Q1491.87 1258.33 1495.02 1262.94 Q1498.19 1267.52 1498.19 1276.27 Q1498.19 1284.44 1494.3 1289.32 Q1490.43 1294.19 1483.88 1294.19 Q1482.12 1294.19 1480.32 1293.84 Q1478.51 1293.49 1476.57 1292.8 M1485.87 1278.14 Q1489.02 1278.14 1490.85 1275.99 Q1492.7 1273.84 1492.7 1270.09 Q1492.7 1266.36 1490.85 1264.21 Q1489.02 1262.03 1485.87 1262.03 Q1482.73 1262.03 1480.87 1264.21 Q1479.05 1266.36 1479.05 1270.09 Q1479.05 1273.84 1480.87 1275.99 Q1482.73 1278.14 1485.87 1278.14 Z" fill="#000000" fill-rule="nonzero" fill-opacity="1"></path><path clip-path="url(#clip410)" d="M1516.59 1262.03 Q1512.98 1262.03 1511.15 1265.6 Q1509.35 1269.14 1509.35 1276.27 Q1509.35 1283.38 1511.15 1286.94 Q1512.98 1290.48 1516.59 1290.48 Q1520.23 1290.48 1522.03 1286.94 Q1523.86 1283.38 1523.86 1276.27 Q1523.86 1269.14 1522.03 1265.6 Q1520.23 1262.03 1516.59 1262.03 M1516.59 1258.33 Q1522.4 1258.33 1525.46 1262.94 Q1528.54 1267.52 1528.54 1276.27 Q1528.54 1285 1525.46 1289.6 Q1522.4 1294.19 1516.59 1294.19 Q1510.78 1294.19 1507.7 1289.6 Q1504.65 1285 1504.65 1276.27 Q1504.65 1267.52 1507.7 1262.94 Q1510.78 1258.33 1516.59 1258.33 Z" fill="#000000" fill-rule="nonzero" fill-opacity="1"></path><path clip-path="url(#clip410)" d="M1899.19 1289.58 L1906.83 1289.58 L1906.83 1263.21 L1898.52 1264.88 L1898.52 1260.62 L1906.79 1258.95 L1911.46 1258.95 L1911.46 1289.58 L1919.1 1289.58 L1919.1 1293.51 L1899.19 1293.51 L1899.19 1289.58 Z" fill="#000000" fill-rule="nonzero" fill-opacity="1"></path><path clip-path="url(#clip410)" d="M1932.57 1289.58 L1948.89 1289.58 L1948.89 1293.51 L1926.95 1293.51 L1926.95 1289.58 Q1929.61 1286.82 1934.19 1282.2 Q1938.8 1277.54 1939.98 1276.2 Q1942.22 1273.68 1943.1 1271.94 Q1944.01 1270.18 1944.01 1268.49 Q1944.01 1265.74 1942.06 1264 Q1940.14 1262.26 1937.04 1262.26 Q1934.84 1262.26 1932.39 1263.03 Q1929.96 1263.79 1927.18 1265.34 L1927.18 1260.62 Q1930 1259.49 1932.46 1258.91 Q1934.91 1258.33 1936.95 1258.33 Q1942.32 1258.33 1945.51 1261.01 Q1948.71 1263.7 1948.71 1268.19 Q1948.71 1270.32 1947.9 1272.24 Q1947.11 1274.14 1945 1276.73 Q1944.42 1277.4 1941.32 1280.62 Q1938.22 1283.82 1932.57 1289.58 Z" fill="#000000" fill-rule="nonzero" fill-opacity="1"></path><path clip-path="url(#clip410)" d="M1968.71 1262.03 Q1965.1 1262.03 1963.27 1265.6 Q1961.46 1269.14 1961.46 1276.27 Q1961.46 1283.38 1963.27 1286.94 Q1965.1 1290.48 1968.71 1290.48 Q1972.34 1290.48 1974.15 1286.94 Q1975.97 1283.38 1975.97 1276.27 Q1975.97 1269.14 1974.15 1265.6 Q1972.34 1262.03 1968.71 1262.03 M1968.71 1258.33 Q1974.52 1258.33 1977.57 1262.94 Q1980.65 1267.52 1980.65 1276.27 Q1980.65 1285 1977.57 1289.6 Q1974.52 1294.19 1968.71 1294.19 Q1962.9 1294.19 1959.82 1289.6 Q1956.76 1285 1956.76 1276.27 Q1956.76 1267.52 1959.82 1262.94 Q1962.9 1258.33 1968.71 1258.33 Z" fill="#000000" fill-rule="nonzero" fill-opacity="1"></path><polyline clip-path="url(#clip412)" style="stroke:#000000; stroke-linecap:round; stroke-linejoin:round; stroke-width:2; stroke-opacity:0.1; fill:none" points="138.959,1073.51 2352.76,1073.51 "></polyline>
<polyline clip-path="url(#clip412)" style="stroke:#000000; stroke-linecap:round; stroke-linejoin:round; stroke-width:2; stroke-opacity:0.1; fill:none" points="138.959,825.322 2352.76,825.322 "></polyline>
<polyline clip-path="url(#clip412)" style="stroke:#000000; stroke-linecap:round; stroke-linejoin:round; stroke-width:2; stroke-opacity:0.1; fill:none" points="138.959,577.132 2352.76,577.132 "></polyline>
<polyline clip-path="url(#clip412)" style="stroke:#000000; stroke-linecap:round; stroke-linejoin:round; stroke-width:2; stroke-opacity:0.1; fill:none" points="138.959,328.941 2352.76,328.941 "></polyline>
<polyline clip-path="url(#clip412)" style="stroke:#000000; stroke-linecap:round; stroke-linejoin:round; stroke-width:2; stroke-opacity:0.1; fill:none" points="138.959,80.7499 2352.76,80.7499 "></polyline>
<polyline clip-path="url(#clip410)" style="stroke:#000000; stroke-linecap:round; stroke-linejoin:round; stroke-width:4; stroke-opacity:1; fill:none" points="138.959,1231.11 138.959,47.2441 "></polyline>
<polyline clip-path="url(#clip410)" style="stroke:#000000; stroke-linecap:round; stroke-linejoin:round; stroke-width:4; stroke-opacity:1; fill:none" points="138.959,1073.51 157.857,1073.51 "></polyline>
<polyline clip-path="url(#clip410)" style="stroke:#000000; stroke-linecap:round; stroke-linejoin:round; stroke-width:4; stroke-opacity:1; fill:none" points="138.959,825.322 157.857,825.322 "></polyline>
<polyline clip-path="url(#clip410)" style="stroke:#000000; stroke-linecap:round; stroke-linejoin:round; stroke-width:4; stroke-opacity:1; fill:none" points="138.959,577.132 157.857,577.132 "></polyline>
<polyline clip-path="url(#clip410)" style="stroke:#000000; stroke-linecap:round; stroke-linejoin:round; stroke-width:4; stroke-opacity:1; fill:none" points="138.959,328.941 157.857,328.941 "></polyline>
<polyline clip-path="url(#clip410)" style="stroke:#000000; stroke-linecap:round; stroke-linejoin:round; stroke-width:4; stroke-opacity:1; fill:none" points="138.959,80.7499 157.857,80.7499 "></polyline>
<path clip-path="url(#clip410)" d="M86.6401 1086.86 L102.959 1086.86 L102.959 1090.79 L81.0151 1090.79 L81.0151 1086.86 Q83.6771 1084.1 88.2604 1079.47 Q92.8669 1074.82 94.0475 1073.48 Q96.2928 1070.96 97.1724 1069.22 Q98.0752 1067.46 98.0752 1065.77 Q98.0752 1063.02 96.1308 1061.28 Q94.2095 1059.54 91.1077 1059.54 Q88.9086 1059.54 86.4549 1060.31 Q84.0244 1061.07 81.2466 1062.62 L81.2466 1057.9 Q84.0707 1056.77 86.5243 1056.19 Q88.978 1055.61 91.0151 1055.61 Q96.3854 1055.61 99.5798 1058.29 Q102.774 1060.98 102.774 1065.47 Q102.774 1067.6 101.964 1069.52 Q101.177 1071.42 99.0706 1074.01 Q98.4919 1074.68 95.39 1077.9 Q92.2882 1081.09 86.6401 1086.86 Z" fill="#000000" fill-rule="nonzero" fill-opacity="1"></path><path clip-path="url(#clip410)" d="M93.3762 812.116 L81.5707 830.565 L93.3762 830.565 L93.3762 812.116 M92.1493 808.042 L98.0289 808.042 L98.0289 830.565 L102.959 830.565 L102.959 834.454 L98.0289 834.454 L98.0289 842.602 L93.3762 842.602 L93.3762 834.454 L77.7744 834.454 L77.7744 829.94 L92.1493 808.042 Z" fill="#000000" fill-rule="nonzero" fill-opacity="1"></path><path clip-path="url(#clip410)" d="M91.4317 575.268 Q88.2836 575.268 86.4318 577.421 Q84.6031 579.574 84.6031 583.324 Q84.6031 587.05 86.4318 589.226 Q88.2836 591.379 91.4317 591.379 Q94.5799 591.379 96.4085 589.226 Q98.2604 587.05 98.2604 583.324 Q98.2604 579.574 96.4085 577.421 Q94.5799 575.268 91.4317 575.268 M100.714 560.615 L100.714 564.875 Q98.9548 564.041 97.1493 563.602 Q95.3669 563.162 93.6076 563.162 Q88.978 563.162 86.5243 566.287 Q84.0938 569.412 83.7466 575.731 Q85.1123 573.717 87.1725 572.652 Q89.2327 571.564 91.7095 571.564 Q96.9178 571.564 99.927 574.736 Q102.959 577.884 102.959 583.324 Q102.959 588.648 99.8113 591.865 Q96.6632 595.083 91.4317 595.083 Q85.4364 595.083 82.2651 590.5 Q79.0938 585.893 79.0938 577.166 Q79.0938 568.972 82.9827 564.111 Q86.8716 559.227 93.4225 559.227 Q95.1817 559.227 96.9641 559.574 Q98.7696 559.921 100.714 560.615 Z" fill="#000000" fill-rule="nonzero" fill-opacity="1"></path><path clip-path="url(#clip410)" d="M91.1077 329.809 Q87.7743 329.809 85.8531 331.591 Q83.9549 333.374 83.9549 336.499 Q83.9549 339.624 85.8531 341.406 Q87.7743 343.188 91.1077 343.188 Q94.441 343.188 96.3623 341.406 Q98.2835 339.6 98.2835 336.499 Q98.2835 333.374 96.3623 331.591 Q94.4641 329.809 91.1077 329.809 M86.4318 327.818 Q83.4225 327.077 81.7327 325.017 Q80.066 322.957 80.066 319.994 Q80.066 315.85 83.0058 313.443 Q85.9688 311.036 91.1077 311.036 Q96.2697 311.036 99.2095 313.443 Q102.149 315.85 102.149 319.994 Q102.149 322.957 100.459 325.017 Q98.7928 327.077 95.8067 327.818 Q99.1863 328.605 101.061 330.897 Q102.959 333.188 102.959 336.499 Q102.959 341.522 99.8808 344.207 Q96.8252 346.892 91.1077 346.892 Q85.3901 346.892 82.3114 344.207 Q79.2559 341.522 79.2559 336.499 Q79.2559 333.188 81.154 330.897 Q83.0521 328.605 86.4318 327.818 M84.7188 320.434 Q84.7188 323.119 86.3855 324.624 Q88.0753 326.128 91.1077 326.128 Q94.1169 326.128 95.8067 324.624 Q97.5197 323.119 97.5197 320.434 Q97.5197 317.749 95.8067 316.244 Q94.1169 314.739 91.1077 314.739 Q88.0753 314.739 86.3855 316.244 Q84.7188 317.749 84.7188 320.434 Z" fill="#000000" fill-rule="nonzero" fill-opacity="1"></path><path clip-path="url(#clip410)" d="M51.6634 94.0947 L59.3023 94.0947 L59.3023 67.7291 L50.9921 69.3958 L50.9921 65.1365 L59.256 63.4699 L63.9319 63.4699 L63.9319 94.0947 L71.5707 94.0947 L71.5707 98.0299 L51.6634 98.0299 L51.6634 94.0947 Z" fill="#000000" fill-rule="nonzero" fill-opacity="1"></path><path clip-path="url(#clip410)" d="M91.0151 66.5485 Q87.404 66.5485 85.5753 70.1133 Q83.7697 73.655 83.7697 80.7846 Q83.7697 87.891 85.5753 91.4558 Q87.404 94.9975 91.0151 94.9975 Q94.6493 94.9975 96.4548 91.4558 Q98.2835 87.891 98.2835 80.7846 Q98.2835 73.655 96.4548 70.1133 Q94.6493 66.5485 91.0151 66.5485 M91.0151 62.8449 Q96.8252 62.8449 99.8808 67.4513 Q102.959 72.0346 102.959 80.7846 Q102.959 89.5114 99.8808 94.1178 Q96.8252 98.7012 91.0151 98.7012 Q85.2049 98.7012 82.1262 94.1178 Q79.0707 89.5114 79.0707 80.7846 Q79.0707 72.0346 82.1262 67.4513 Q85.2049 62.8449 91.0151 62.8449 Z" fill="#000000" fill-rule="nonzero" fill-opacity="1"></path><polyline clip-path="url(#clip412)" style="stroke:#000000; stroke-linecap:round; stroke-linejoin:round; stroke-width:8; stroke-opacity:1; fill:none" points="201.614,736.16 216.219,729.684 230.824,715.771 245.428,718.624 260.033,726.568 274.638,712.982 289.243,701.573 303.848,701.573 318.453,712.066 333.057,728.637 347.662,745.356 362.267,729.684 376.872,732.88 391.477,721.544 406.081,707.586 420.686,712.982 435.291,722.532 449.896,700.737 464.501,684.375 479.105,684.375 493.71,693.459 508.315,714.834 522.92,733.964 537.525,708.469 552.129,704.114 566.734,699.907 581.339,678.668 595.944,689.593 610.549,682.924 625.153,1197.61 639.758,664.829 654.363,664.829 668.968,674.554 683.573,690.357 698.177,703.261 712.782,687.33 727.387,683.647 741.992,677.282 756.597,668.628 771.201,676.594 785.806,675.231 800.411,653.513 815.016,646.863 829.621,640.552 844.226,658.745 858.83,669.921 873.435,682.924 888.04,667.987 902.645,666.714 917.25,666.714 931.854,643.668 946.459,644.195 961.064,647.404 975.669,640.04 990.274,629.754 1004.88,626.05 1019.48,643.143 1034.09,657.563 1048.69,677.282 1063.3,80.7499 1077.9,661.75 1092.51,671.886 1107.11,644.195 1121.72,648.493 1136.32,644.724 1150.93,629.754 1165.53,613.066 1180.14,616.821 1194.74,632.127 1209.35,647.404 1223.95,662.36 1238.56,647.404 1253.16,640.552 1267.76,645.255 1282.37,628.352 1296.97,627.426 1311.58,626.966 1326.18,607.836 1340.79,589.894 1355.39,595.83 1370,609.024 1384.6,625.141 1399.21,643.143 1413.81,623.342 1428.42,620.692 1443.02,623.789 1457.63,607.051 1472.23,608.627 1486.84,606.66 1501.44,586.531 1516.05,574.222 1530.65,576.649 1545.26,593.001 1559.86,611.433 1574.47,626.507 1589.07,611.433 1603.68,607.836 1618.28,613.478 1632.89,592.652 1647.49,1073.51 1662.09,593.001 1676.7,571.547 1691.3,559.505 1705.91,558.973 1720.51,576.956 1735.12,595.83 1749.72,611.84 1764.33,599.827 1778.93,598.359 1793.54,606.66 1808.14,590.578 1822.75,595.473 1837.35,590.236 1851.96,567.781 1866.56,552.754 1881.17,549.265 1895.77,576.956 1910.38,591.611 1924.98,609.822 1939.59,599.458 1954.19,591.266 1968.8,597.631 1983.4,576.343 1998.01,579.438 2012.61,572.136 2027.21,557.651 2041.82,539.124 2056.42,536.658 2071.03,560.04 2085.63,576.038 2100.24,590.578 2114.84,576.649 2129.45,573.026 2144.05,581.015 2158.66,572.432 2173.26,560.577 2187.87,557.651 2202.47,542.104 2217.08,523.406 2231.68,526.64 2246.29,548.53 2260.89,560.577 2275.5,581.333 2290.1,568.64 "></polyline>
<circle clip-path="url(#clip412)" cx="625.153" cy="1197.61" r="14.4" fill="#e26f46" fill-rule="evenodd" fill-opacity="1" stroke="#000000" stroke-opacity="1" stroke-width="3.2"></circle>
<circle clip-path="url(#clip412)" cx="1063.3" cy="80.7499" r="14.4" fill="#e26f46" fill-rule="evenodd" fill-opacity="1" stroke="#000000" stroke-opacity="1" stroke-width="3.2"></circle>
<circle clip-path="url(#clip412)" cx="1647.49" cy="1073.51" r="14.4" fill="#e26f46" fill-rule="evenodd" fill-opacity="1" stroke="#000000" stroke-opacity="1" stroke-width="3.2"></circle>
<path clip-path="url(#clip410)" d="M929.625 1486.45 L1562.09 1486.45 L1562.09 1330.93 L929.625 1330.93  Z" fill="#ffffff" fill-rule="evenodd" fill-opacity="1"></path>
<polyline clip-path="url(#clip410)" style="stroke:#000000; stroke-linecap:round; stroke-linejoin:round; stroke-width:4; stroke-opacity:1; fill:none" points="929.625,1486.45 1562.09,1486.45 1562.09,1330.93 929.625,1330.93 929.625,1486.45 "></polyline>
<polyline clip-path="url(#clip410)" style="stroke:#000000; stroke-linecap:round; stroke-linejoin:round; stroke-width:8; stroke-opacity:1; fill:none" points="954.223,1382.77 1101.81,1382.77 "></polyline>
<path clip-path="url(#clip410)" d="M1126.41 1365.49 L1131.08 1365.49 L1131.08 1379.65 L1148.07 1379.65 L1148.07 1365.49 L1152.75 1365.49 L1152.75 1400.05 L1148.07 1400.05 L1148.07 1383.59 L1131.08 1383.59 L1131.08 1400.05 L1126.41 1400.05 L1126.41 1365.49 Z" fill="#000000" fill-rule="nonzero" fill-opacity="1"></path><path clip-path="url(#clip410)" d="M1161.87 1374.12 L1166.13 1374.12 L1166.13 1400.05 L1161.87 1400.05 L1161.87 1374.12 M1161.87 1364.03 L1166.13 1364.03 L1166.13 1369.42 L1161.87 1369.42 L1161.87 1364.03 Z" fill="#000000" fill-rule="nonzero" fill-opacity="1"></path><path clip-path="url(#clip410)" d="M1191.57 1374.89 L1191.57 1378.91 Q1189.76 1377.99 1187.82 1377.52 Q1185.87 1377.06 1183.79 1377.06 Q1180.62 1377.06 1179.02 1378.03 Q1177.45 1379.01 1177.45 1380.95 Q1177.45 1382.43 1178.58 1383.29 Q1179.72 1384.12 1183.14 1384.89 L1184.6 1385.21 Q1189.14 1386.18 1191.04 1387.96 Q1192.96 1389.72 1192.96 1392.9 Q1192.96 1396.51 1190.09 1398.61 Q1187.24 1400.72 1182.24 1400.72 Q1180.16 1400.72 1177.89 1400.3 Q1175.64 1399.91 1173.14 1399.1 L1173.14 1394.7 Q1175.5 1395.93 1177.8 1396.55 Q1180.09 1397.15 1182.33 1397.15 Q1185.34 1397.15 1186.96 1396.14 Q1188.58 1395.09 1188.58 1393.22 Q1188.58 1391.48 1187.4 1390.56 Q1186.24 1389.63 1182.29 1388.77 L1180.8 1388.43 Q1176.85 1387.59 1175.09 1385.88 Q1173.33 1384.15 1173.33 1381.14 Q1173.33 1377.48 1175.92 1375.49 Q1178.51 1373.5 1183.28 1373.5 Q1185.64 1373.5 1187.73 1373.84 Q1189.81 1374.19 1191.57 1374.89 Z" fill="#000000" fill-rule="nonzero" fill-opacity="1"></path><path clip-path="url(#clip410)" d="M1203.95 1366.76 L1203.95 1374.12 L1212.73 1374.12 L1212.73 1377.43 L1203.95 1377.43 L1203.95 1391.51 Q1203.95 1394.68 1204.81 1395.58 Q1205.69 1396.48 1208.35 1396.48 L1212.73 1396.48 L1212.73 1400.05 L1208.35 1400.05 Q1203.42 1400.05 1201.55 1398.22 Q1199.67 1396.37 1199.67 1391.51 L1199.67 1377.43 L1196.55 1377.43 L1196.55 1374.12 L1199.67 1374.12 L1199.67 1366.76 L1203.95 1366.76 Z" fill="#000000" fill-rule="nonzero" fill-opacity="1"></path><path clip-path="url(#clip410)" d="M1228.37 1377.11 Q1224.95 1377.11 1222.96 1379.79 Q1220.97 1382.46 1220.97 1387.11 Q1220.97 1391.76 1222.93 1394.45 Q1224.92 1397.11 1228.37 1397.11 Q1231.78 1397.11 1233.77 1394.42 Q1235.76 1391.74 1235.76 1387.11 Q1235.76 1382.5 1233.77 1379.82 Q1231.78 1377.11 1228.37 1377.11 M1228.37 1373.5 Q1233.93 1373.5 1237.1 1377.11 Q1240.27 1380.72 1240.27 1387.11 Q1240.27 1393.47 1237.1 1397.11 Q1233.93 1400.72 1228.37 1400.72 Q1222.8 1400.72 1219.62 1397.11 Q1216.48 1393.47 1216.48 1387.11 Q1216.48 1380.72 1219.62 1377.11 Q1222.8 1373.5 1228.37 1373.5 Z" fill="#000000" fill-rule="nonzero" fill-opacity="1"></path><path clip-path="url(#clip410)" d="M1262.36 1378.1 Q1261.64 1377.69 1260.78 1377.5 Q1259.95 1377.29 1258.93 1377.29 Q1255.32 1377.29 1253.37 1379.65 Q1251.45 1381.99 1251.45 1386.39 L1251.45 1400.05 L1247.17 1400.05 L1247.17 1374.12 L1251.45 1374.12 L1251.45 1378.15 Q1252.8 1375.79 1254.95 1374.65 Q1257.1 1373.5 1260.18 1373.5 Q1260.62 1373.5 1261.15 1373.57 Q1261.68 1373.61 1262.33 1373.73 L1262.36 1378.1 Z" fill="#000000" fill-rule="nonzero" fill-opacity="1"></path><path clip-path="url(#clip410)" d="M1266.82 1374.12 L1271.08 1374.12 L1271.08 1400.05 L1266.82 1400.05 L1266.82 1374.12 M1266.82 1364.03 L1271.08 1364.03 L1271.08 1369.42 L1266.82 1369.42 L1266.82 1364.03 Z" fill="#000000" fill-rule="nonzero" fill-opacity="1"></path><path clip-path="url(#clip410)" d="M1298.65 1375.12 L1298.65 1379.1 Q1296.85 1378.1 1295.02 1377.62 Q1293.21 1377.11 1291.36 1377.11 Q1287.22 1377.11 1284.92 1379.75 Q1282.63 1382.36 1282.63 1387.11 Q1282.63 1391.85 1284.92 1394.49 Q1287.22 1397.11 1291.36 1397.11 Q1293.21 1397.11 1295.02 1396.62 Q1296.85 1396.11 1298.65 1395.12 L1298.65 1399.05 Q1296.87 1399.89 1294.95 1400.3 Q1293.05 1400.72 1290.9 1400.72 Q1285.04 1400.72 1281.59 1397.04 Q1278.14 1393.36 1278.14 1387.11 Q1278.14 1380.77 1281.61 1377.13 Q1285.11 1373.5 1291.17 1373.5 Q1293.14 1373.5 1295.02 1373.91 Q1296.89 1374.31 1298.65 1375.12 Z" fill="#000000" fill-rule="nonzero" fill-opacity="1"></path><path clip-path="url(#clip410)" d="M1317.84 1387.02 Q1312.68 1387.02 1310.69 1388.2 Q1308.7 1389.38 1308.7 1392.22 Q1308.7 1394.49 1310.18 1395.83 Q1311.68 1397.15 1314.25 1397.15 Q1317.79 1397.15 1319.92 1394.65 Q1322.08 1392.13 1322.08 1387.96 L1322.08 1387.02 L1317.84 1387.02 M1326.34 1385.26 L1326.34 1400.05 L1322.08 1400.05 L1322.08 1396.11 Q1320.62 1398.47 1318.44 1399.61 Q1316.27 1400.72 1313.12 1400.72 Q1309.14 1400.72 1306.78 1398.5 Q1304.44 1396.25 1304.44 1392.5 Q1304.44 1388.13 1307.35 1385.9 Q1310.29 1383.68 1316.1 1383.68 L1322.08 1383.68 L1322.08 1383.27 Q1322.08 1380.33 1320.13 1378.73 Q1318.21 1377.11 1314.72 1377.11 Q1312.49 1377.11 1310.39 1377.64 Q1308.28 1378.17 1306.34 1379.24 L1306.34 1375.3 Q1308.67 1374.4 1310.87 1373.96 Q1313.07 1373.5 1315.16 1373.5 Q1320.78 1373.5 1323.56 1376.41 Q1326.34 1379.33 1326.34 1385.26 Z" fill="#000000" fill-rule="nonzero" fill-opacity="1"></path><path clip-path="url(#clip410)" d="M1335.11 1364.03 L1339.37 1364.03 L1339.37 1400.05 L1335.11 1400.05 L1335.11 1364.03 Z" fill="#000000" fill-rule="nonzero" fill-opacity="1"></path><circle clip-path="url(#clip410)" cx="1028.02" cy="1434.61" r="20.48" fill="#e26f46" fill-rule="evenodd" fill-opacity="1" stroke="#000000" stroke-opacity="1" stroke-width="4.55111"></circle>
<path clip-path="url(#clip410)" d="M1131.08 1421.17 L1131.08 1448.05 L1136.73 1448.05 Q1143.88 1448.05 1147.19 1444.8 Q1150.53 1441.56 1150.53 1434.57 Q1150.53 1427.63 1147.19 1424.41 Q1143.88 1421.17 1136.73 1421.17 L1131.08 1421.17 M1126.41 1417.33 L1136.01 1417.33 Q1146.06 1417.33 1150.76 1421.52 Q1155.46 1425.68 1155.46 1434.57 Q1155.46 1443.51 1150.74 1447.7 Q1146.01 1451.89 1136.01 1451.89 L1126.41 1451.89 L1126.41 1417.33 Z" fill="#000000" fill-rule="nonzero" fill-opacity="1"></path><path clip-path="url(#clip410)" d="M1184.9 1437.86 L1184.9 1439.94 L1165.32 1439.94 Q1165.6 1444.34 1167.96 1446.66 Q1170.34 1448.95 1174.58 1448.95 Q1177.03 1448.95 1179.32 1448.35 Q1181.64 1447.74 1183.91 1446.54 L1183.91 1450.57 Q1181.61 1451.54 1179.21 1452.05 Q1176.8 1452.56 1174.32 1452.56 Q1168.12 1452.56 1164.49 1448.95 Q1160.87 1445.34 1160.87 1439.18 Q1160.87 1432.81 1164.3 1429.09 Q1167.75 1425.34 1173.58 1425.34 Q1178.81 1425.34 1181.85 1428.72 Q1184.9 1432.07 1184.9 1437.86 M1180.64 1436.61 Q1180.6 1433.11 1178.68 1431.03 Q1176.78 1428.95 1173.63 1428.95 Q1170.06 1428.95 1167.91 1430.96 Q1165.78 1432.98 1165.46 1436.63 L1180.64 1436.61 Z" fill="#000000" fill-rule="nonzero" fill-opacity="1"></path><path clip-path="url(#clip410)" d="M1196.11 1418.6 L1196.11 1425.96 L1204.88 1425.96 L1204.88 1429.27 L1196.11 1429.27 L1196.11 1443.35 Q1196.11 1446.52 1196.96 1447.42 Q1197.84 1448.32 1200.5 1448.32 L1204.88 1448.32 L1204.88 1451.89 L1200.5 1451.89 Q1195.57 1451.89 1193.7 1450.06 Q1191.82 1448.21 1191.82 1443.35 L1191.82 1429.27 L1188.7 1429.27 L1188.7 1425.96 L1191.82 1425.96 L1191.82 1418.6 L1196.11 1418.6 Z" fill="#000000" fill-rule="nonzero" fill-opacity="1"></path><path clip-path="url(#clip410)" d="M1232.66 1437.86 L1232.66 1439.94 L1213.07 1439.94 Q1213.35 1444.34 1215.71 1446.66 Q1218.1 1448.95 1222.33 1448.95 Q1224.79 1448.95 1227.08 1448.35 Q1229.39 1447.74 1231.66 1446.54 L1231.66 1450.57 Q1229.37 1451.54 1226.96 1452.05 Q1224.55 1452.56 1222.08 1452.56 Q1215.87 1452.56 1212.24 1448.95 Q1208.63 1445.34 1208.63 1439.18 Q1208.63 1432.81 1212.05 1429.09 Q1215.5 1425.34 1221.34 1425.34 Q1226.57 1425.34 1229.6 1428.72 Q1232.66 1432.07 1232.66 1437.86 M1228.4 1436.61 Q1228.35 1433.11 1226.43 1431.03 Q1224.53 1428.95 1221.38 1428.95 Q1217.82 1428.95 1215.67 1430.96 Q1213.54 1432.98 1213.21 1436.63 L1228.4 1436.61 Z" fill="#000000" fill-rule="nonzero" fill-opacity="1"></path><path clip-path="url(#clip410)" d="M1258.3 1426.96 L1258.3 1430.94 Q1256.5 1429.94 1254.67 1429.46 Q1252.86 1428.95 1251.01 1428.95 Q1246.87 1428.95 1244.58 1431.59 Q1242.29 1434.2 1242.29 1438.95 Q1242.29 1443.69 1244.58 1446.33 Q1246.87 1448.95 1251.01 1448.95 Q1252.86 1448.95 1254.67 1448.46 Q1256.5 1447.95 1258.3 1446.96 L1258.3 1450.89 Q1256.52 1451.73 1254.6 1452.14 Q1252.7 1452.56 1250.55 1452.56 Q1244.69 1452.56 1241.24 1448.88 Q1237.8 1445.2 1237.8 1438.95 Q1237.8 1432.61 1241.27 1428.97 Q1244.76 1425.34 1250.83 1425.34 Q1252.8 1425.34 1254.67 1425.75 Q1256.55 1426.15 1258.3 1426.96 Z" fill="#000000" fill-rule="nonzero" fill-opacity="1"></path><path clip-path="url(#clip410)" d="M1269.92 1418.6 L1269.92 1425.96 L1278.7 1425.96 L1278.7 1429.27 L1269.92 1429.27 L1269.92 1443.35 Q1269.92 1446.52 1270.78 1447.42 Q1271.66 1448.32 1274.32 1448.32 L1278.7 1448.32 L1278.7 1451.89 L1274.32 1451.89 Q1269.39 1451.89 1267.52 1450.06 Q1265.64 1448.21 1265.64 1443.35 L1265.64 1429.27 L1262.52 1429.27 L1262.52 1425.96 L1265.64 1425.96 L1265.64 1418.6 L1269.92 1418.6 Z" fill="#000000" fill-rule="nonzero" fill-opacity="1"></path><path clip-path="url(#clip410)" d="M1306.48 1437.86 L1306.48 1439.94 L1286.89 1439.94 Q1287.17 1444.34 1289.53 1446.66 Q1291.92 1448.95 1296.15 1448.95 Q1298.61 1448.95 1300.9 1448.35 Q1303.21 1447.74 1305.48 1446.54 L1305.48 1450.57 Q1303.19 1451.54 1300.78 1452.05 Q1298.37 1452.56 1295.9 1452.56 Q1289.69 1452.56 1286.06 1448.95 Q1282.45 1445.34 1282.45 1439.18 Q1282.45 1432.81 1285.87 1429.09 Q1289.32 1425.34 1295.16 1425.34 Q1300.39 1425.34 1303.42 1428.72 Q1306.48 1432.07 1306.48 1437.86 M1302.22 1436.61 Q1302.17 1433.11 1300.25 1431.03 Q1298.35 1428.95 1295.2 1428.95 Q1291.64 1428.95 1289.48 1430.96 Q1287.36 1432.98 1287.03 1436.63 L1302.22 1436.61 Z" fill="#000000" fill-rule="nonzero" fill-opacity="1"></path><path clip-path="url(#clip410)" d="M1330.53 1429.9 L1330.53 1415.87 L1334.79 1415.87 L1334.79 1451.89 L1330.53 1451.89 L1330.53 1448 Q1329.18 1450.31 1327.12 1451.45 Q1325.09 1452.56 1322.22 1452.56 Q1317.52 1452.56 1314.55 1448.81 Q1311.61 1445.06 1311.61 1438.95 Q1311.61 1432.84 1314.55 1429.09 Q1317.52 1425.34 1322.22 1425.34 Q1325.09 1425.34 1327.12 1426.47 Q1329.18 1427.58 1330.53 1429.9 M1316.01 1438.95 Q1316.01 1443.65 1317.93 1446.33 Q1319.88 1448.99 1323.26 1448.99 Q1326.64 1448.99 1328.58 1446.33 Q1330.53 1443.65 1330.53 1438.95 Q1330.53 1434.25 1328.58 1431.59 Q1326.64 1428.9 1323.26 1428.9 Q1319.88 1428.9 1317.93 1431.59 Q1316.01 1434.25 1316.01 1438.95 Z" fill="#000000" fill-rule="nonzero" fill-opacity="1"></path><path clip-path="url(#clip410)" d="M1372.84 1420.5 Q1367.75 1420.5 1364.74 1424.3 Q1361.75 1428.09 1361.75 1434.64 Q1361.75 1441.17 1364.74 1444.97 Q1367.75 1448.76 1372.84 1448.76 Q1377.93 1448.76 1380.9 1444.97 Q1383.88 1441.17 1383.88 1434.64 Q1383.88 1428.09 1380.9 1424.3 Q1377.93 1420.5 1372.84 1420.5 M1372.84 1416.7 Q1380.11 1416.7 1384.46 1421.59 Q1388.81 1426.45 1388.81 1434.64 Q1388.81 1442.81 1384.46 1447.7 Q1380.11 1452.56 1372.84 1452.56 Q1365.55 1452.56 1361.17 1447.7 Q1356.82 1442.84 1356.82 1434.64 Q1356.82 1426.45 1361.17 1421.59 Q1365.55 1416.7 1372.84 1416.7 Z" fill="#000000" fill-rule="nonzero" fill-opacity="1"></path><path clip-path="url(#clip410)" d="M1395.5 1441.66 L1395.5 1425.96 L1399.76 1425.96 L1399.76 1441.49 Q1399.76 1445.17 1401.2 1447.03 Q1402.63 1448.86 1405.5 1448.86 Q1408.95 1448.86 1410.94 1446.66 Q1412.96 1444.46 1412.96 1440.66 L1412.96 1425.96 L1417.22 1425.96 L1417.22 1451.89 L1412.96 1451.89 L1412.96 1447.91 Q1411.41 1450.27 1409.35 1451.42 Q1407.31 1452.56 1404.6 1452.56 Q1400.13 1452.56 1397.82 1449.78 Q1395.5 1447 1395.5 1441.66 M1406.22 1425.34 L1406.22 1425.34 Z" fill="#000000" fill-rule="nonzero" fill-opacity="1"></path><path clip-path="url(#clip410)" d="M1430.2 1418.6 L1430.2 1425.96 L1438.97 1425.96 L1438.97 1429.27 L1430.2 1429.27 L1430.2 1443.35 Q1430.2 1446.52 1431.06 1447.42 Q1431.94 1448.32 1434.6 1448.32 L1438.97 1448.32 L1438.97 1451.89 L1434.6 1451.89 Q1429.67 1451.89 1427.79 1450.06 Q1425.92 1448.21 1425.92 1443.35 L1425.92 1429.27 L1422.79 1429.27 L1422.79 1425.96 L1425.92 1425.96 L1425.92 1418.6 L1430.2 1418.6 Z" fill="#000000" fill-rule="nonzero" fill-opacity="1"></path><path clip-path="url(#clip410)" d="M1444.58 1415.87 L1448.84 1415.87 L1448.84 1451.89 L1444.58 1451.89 L1444.58 1415.87 Z" fill="#000000" fill-rule="nonzero" fill-opacity="1"></path><path clip-path="url(#clip410)" d="M1457.75 1425.96 L1462.01 1425.96 L1462.01 1451.89 L1457.75 1451.89 L1457.75 1425.96 M1457.75 1415.87 L1462.01 1415.87 L1462.01 1421.26 L1457.75 1421.26 L1457.75 1415.87 Z" fill="#000000" fill-rule="nonzero" fill-opacity="1"></path><path clip-path="url(#clip410)" d="M1493.09 1437.86 L1493.09 1439.94 L1473.51 1439.94 Q1473.79 1444.34 1476.15 1446.66 Q1478.53 1448.95 1482.77 1448.95 Q1485.22 1448.95 1487.52 1448.35 Q1489.83 1447.74 1492.1 1446.54 L1492.1 1450.57 Q1489.81 1451.54 1487.4 1452.05 Q1484.99 1452.56 1482.52 1452.56 Q1476.31 1452.56 1472.68 1448.95 Q1469.07 1445.34 1469.07 1439.18 Q1469.07 1432.81 1472.49 1429.09 Q1475.94 1425.34 1481.78 1425.34 Q1487.01 1425.34 1490.04 1428.72 Q1493.09 1432.07 1493.09 1437.86 M1488.84 1436.61 Q1488.79 1433.11 1486.87 1431.03 Q1484.97 1428.95 1481.82 1428.95 Q1478.26 1428.95 1476.1 1430.96 Q1473.97 1432.98 1473.65 1436.63 L1488.84 1436.61 Z" fill="#000000" fill-rule="nonzero" fill-opacity="1"></path><path clip-path="url(#clip410)" d="M1515.11 1429.94 Q1514.39 1429.53 1513.53 1429.34 Q1512.7 1429.13 1511.68 1429.13 Q1508.07 1429.13 1506.13 1431.49 Q1504.21 1433.83 1504.21 1438.23 L1504.21 1451.89 L1499.92 1451.89 L1499.92 1425.96 L1504.21 1425.96 L1504.21 1429.99 Q1505.55 1427.63 1507.7 1426.49 Q1509.85 1425.34 1512.93 1425.34 Q1513.37 1425.34 1513.9 1425.41 Q1514.44 1425.45 1515.09 1425.57 L1515.11 1429.94 Z" fill="#000000" fill-rule="nonzero" fill-opacity="1"></path><path clip-path="url(#clip410)" d="M1536.1 1426.73 L1536.1 1430.75 Q1534.3 1429.83 1532.35 1429.36 Q1530.41 1428.9 1528.33 1428.9 Q1525.15 1428.9 1523.56 1429.87 Q1521.98 1430.85 1521.98 1432.79 Q1521.98 1434.27 1523.12 1435.13 Q1524.25 1435.96 1527.68 1436.73 L1529.14 1437.05 Q1533.67 1438.02 1535.57 1439.8 Q1537.49 1441.56 1537.49 1444.74 Q1537.49 1448.35 1534.62 1450.45 Q1531.78 1452.56 1526.78 1452.56 Q1524.69 1452.56 1522.42 1452.14 Q1520.18 1451.75 1517.68 1450.94 L1517.68 1446.54 Q1520.04 1447.77 1522.33 1448.39 Q1524.62 1448.99 1526.87 1448.99 Q1529.88 1448.99 1531.5 1447.98 Q1533.12 1446.93 1533.12 1445.06 Q1533.12 1443.32 1531.94 1442.4 Q1530.78 1441.47 1526.82 1440.61 L1525.34 1440.27 Q1521.38 1439.43 1519.62 1437.72 Q1517.86 1435.99 1517.86 1432.98 Q1517.86 1429.32 1520.46 1427.33 Q1523.05 1425.34 1527.82 1425.34 Q1530.18 1425.34 1532.26 1425.68 Q1534.34 1426.03 1536.1 1426.73 Z" fill="#000000" fill-rule="nonzero" fill-opacity="1"></path></svg>